<svg xmlns="http://www.w3.org/2000/svg" viewBox="0 0 258.91 188.72"><defs><style>.cls-1{fill:#231f20;}</style></defs><g id="Layer_2" data-name="Layer 2"><g id="Layer_4" data-name="Layer 4"><path class="cls-1" d="M80,72.67a4.52,4.52,0,0,1,2.28-.24c.74.12,1.19.4,1.35.83s-.08,1-.71,1.62c-.12.15-1.23,1-3.32,2.51s-3.56,2.66-4.39,3.42a4.41,4.41,0,0,0-.79,1.83c-.09.28-.34,1.14-.75,2.56a29,29,0,0,1-1.08,3.23,40.54,40.54,0,0,1-3.05,6,6.88,6.88,0,0,1-4.65,3,7.08,7.08,0,0,1-5.14-1,3.15,3.15,0,0,1-1.58-3.79,14.1,14.1,0,0,1,2.66-5.06c1.54-1.81,3.34-3.71,5.38-5.68a5.29,5.29,0,0,0,1.62-3.38c.45-4.36.43-7.59,0-9.67a4.77,4.77,0,0,0-1-2.37,2.25,2.25,0,0,0-2.19.42,21.72,21.72,0,0,0-6.51,6.29,57.16,57.16,0,0,0-7.38,16q-.75,2.52-1.49,5.52c-.48,2-.89,3.73-1.21,5.17s-.73,3.32-1.19,5.62-.85,4.06-1.14,5.3q-.28,1.44-1.43,7t-1.93,8.57q-.66,3.09-2.54,16.29c0,.27-.1.88-.22,1.82a14.18,14.18,0,0,1-.38,2.15,13.31,13.31,0,0,1-.58,2.29c-2.05.72-3.19,1.11-3.41,1.15a4.26,4.26,0,0,1-1.7,0,16.92,16.92,0,0,1-3.85-1.73,1.46,1.46,0,0,1-.41-.66,3.52,3.52,0,0,1-.16-.81,4,4,0,0,1,.1-1,2.23,2.23,0,0,0,.06-.85,210.69,210.69,0,0,1,2.39-28.32q2-11.53,2.81-16,1.82-9.44,3.81-25c.11-1,.37-2.55.77-4.8a3.42,3.42,0,0,1,1.17-2.2c2.77-.14,4.44.83,5,2.89.07.39.21,1.71.42,4,0,.07.12,1.2.31,3.4q2.85-5.3,3-5.52a28.86,28.86,0,0,1,8.18-8.79,12,12,0,0,1,6.77-2,11.57,11.57,0,0,1,7,1.75,9.2,9.2,0,0,1,4,5.65c0,.19.22,1.7.54,4.54A13.31,13.31,0,0,0,78,73.55Z"/><path class="cls-1" d="M112.27,68.54a4.23,4.23,0,0,1,1.59,1.17,2.67,2.67,0,0,1-2.46.77c-.85-.1-2-.28-3.29-.55-.24-.08-1.37-.43-3.37-1A8.65,8.65,0,0,0,102,71.7a68.41,68.41,0,0,0-5.92,11.72q-1.62,4-3.24,7.34A14.47,14.47,0,0,1,91.4,93.4L88,94.06c-2.17-.64-3.46-1.23-3.86-1.78s-.58-1.78-.49-3.71q.18-2,.92-8.18Q85.44,73,86,68.45a17.85,17.85,0,0,1,.76-3.7c.43-1.33,1.49-2,3.2-2s2.86.59,3.44,1.66q-.06,1.4-.36,4c-.19,1.75-.32,3-.39,3.83a.67.67,0,0,1,.36.13,1.44,1.44,0,0,0,.38-.42,5.06,5.06,0,0,1,.35-.51,1.78,1.78,0,0,0,.26-.45l1.89-2.54a7.84,7.84,0,0,1,3.77-2.84,8.91,8.91,0,0,1,4.9.09l2.32.84C109.6,67.6,111.38,68.25,112.27,68.54Z"/><path class="cls-1" d="M157.67,56.63c1.11.64,1.33,1.59.66,2.84a19,19,0,0,1-2.2,3.29q-3.93,5-6.26,7.62Q146,74.79,137.62,84q-.47.5-1.05,1l-1.19,1.16-1,1q-2.85,2.91-8.6,3.73a8,8,0,0,1-6-1.41,6.58,6.58,0,0,1-3.13-4.74c0-.58-.05-1.43,0-2.56a15,15,0,0,0-.07-2.16,28.78,28.78,0,0,1,.81-5.79,54.12,54.12,0,0,1,4-12.32,35.17,35.17,0,0,1,4-6.21,7.38,7.38,0,0,1,5-2.7A7.81,7.81,0,0,1,136,54.48a3.63,3.63,0,0,1,1.59,3,27.22,27.22,0,0,1-.41,3.74,24.52,24.52,0,0,1-7.11,11.44q-.18.24-4,3.63-.9,6.49-.09,9.5c1.6-1.1,2.43-1.69,2.49-1.76,3.08-2.51,5.16-4.26,6.26-5.26a239.07,239.07,0,0,0,19.05-19.57A6.84,6.84,0,0,1,157.67,56.63Zm-27.25,1.79a24.58,24.58,0,0,0-4.31,11.8,17.86,17.86,0,0,0,2.06-3.46,26.56,26.56,0,0,0,1.56-4.3A21,21,0,0,0,130.42,58.42Z"/><path class="cls-1" d="M139.53,35.53a7.7,7.7,0,0,1-1.56.15,2.92,2.92,0,0,1-1.26-.3,3.7,3.7,0,0,1-1.06-.84,7.68,7.68,0,0,1-1-1.43A13.75,13.75,0,0,1,136,32.05c4-1.75,6.56-2.84,7.77-3.27q4.05-1.38,14.52-4.78c.15,0,1.56-.36,4.24-1,.46-1.53,1-3.73,1.62-6.58s1-4.46,1.07-4.8c.13-.49.45-2.08.95-4.78A35.73,35.73,0,0,1,167.78.64a5.64,5.64,0,0,1,5.48.14,2.31,2.31,0,0,1,1.45,1.94,14.91,14.91,0,0,1,0,2,112.67,112.67,0,0,1-1.43,12.62,18.46,18.46,0,0,0-.41,2.55c.77.11,2.64-.23,5.59-1s4.75-1.26,5.41-1.39c.51-.09,4-.9,10.44-2.4a18.34,18.34,0,0,0,1.07-3.27,23.32,23.32,0,0,1,.51-2.37q.42-1.67.69-2.61a3.08,3.08,0,0,1,.77-1.58,5,5,0,0,1,2.13-.46,6.1,6.1,0,0,1,2.94.53,2.09,2.09,0,0,1,1.48,2.38A11,11,0,0,0,203.56,9c-.12.55-.19,1-.22,1.22s-.26,1.21-.52,2.57a2,2,0,0,0,1.64.28l3.34-.64,4-.77a62.58,62.58,0,0,1,8.94-.74,13.13,13.13,0,0,1,4.71.87,3.61,3.61,0,0,1,2.12,1.57c0,.67-.48,1.05-1.37,1.15-.45,0-2.13.15-5,.38A65.12,65.12,0,0,0,209.43,17c-.37.07-1.74.4-4.12,1-.37.08-1.53.33-3.49.78-.33,1.44-.48,2.2-.47,2.26q-2,11.36-3.39,27.23a154.78,154.78,0,0,0-.69,19.39q.21,8.76,2.95,14.15a10.2,10.2,0,0,0,1,1.5c0,.06.23.22.66.46a8.06,8.06,0,0,0,3.56-1.57A25.24,25.24,0,0,0,210,78.36c.43-.54,1-1.21,1.61-2s1.27-1.53,1.89-2.24l1.68-1.91a45.41,45.41,0,0,1,3.74-3.58,7.19,7.19,0,0,1,1.51-1q.56,1.08.57,1.17a7.65,7.65,0,0,1-.93,4.63,31.31,31.31,0,0,1-8.16,10.06,14.66,14.66,0,0,1-10.22,3.55q-7.17-.09-10-5.47a23.84,23.84,0,0,1-3.2-11.34c0-.46-.06-4-.14-10.74-.61,2-.94,3-1,3.15q-4.4,13.2-5.21,15.43a97,97,0,0,1-7.72,14.72c-.48.69-1.08,1.46-1.82,2.33a7.54,7.54,0,0,1-4.38,2.62,2.16,2.16,0,0,0-.75.24,3.17,3.17,0,0,1-1.26.54l-1,.2a3.73,3.73,0,0,1-1.2-.06l-1-.16c-.11,0-.53-.11-1.25-.3a8.59,8.59,0,0,1-2.14-.77A5.82,5.82,0,0,1,158,96.23a9.64,9.64,0,0,1-1.15-1.5,11.61,11.61,0,0,1-.93-1.9A37.85,37.85,0,0,1,154,85.2a91.15,91.15,0,0,1-.16-12.61,227.25,227.25,0,0,1,4.68-29.95q1.08-4.95,2.39-11.13l.2-1.32q-.43-.51-1.62-.18l-6.72,1.93q-4.68,1.35-7.17,2T139.53,35.53Zm24.85,51.22a40.75,40.75,0,0,0,.75,4.5.93.93,0,0,1,.29,0,1.21,1.21,0,0,0,.28,0c1.26-1.69,1.92-2.61,2-2.75q3.9-6.87,5.12-9.38a195.67,195.67,0,0,0,7.39-19.41q.8-2.33,1.73-5.17c.61-1.9,1.29-3.9,2-6s1.3-3.84,1.73-5.17q.28-.86.69-2c.26-.78.51-1.47.73-2.07s.47-1.29.74-2.07.49-1.48.68-2.11q1.58-4.74,3.8-12.09c0-.06.06-.67.21-1.82Q179,24.67,171.79,26.74c-.42,1.8-.62,2.72-.6,2.79q-2.4,13.5-2.49,13.62A232.72,232.72,0,0,0,164.13,76,79.17,79.17,0,0,0,164.38,86.75Z"/><path class="cls-1" d="M235.55,38.86a6.12,6.12,0,0,1,5,.32,4.17,4.17,0,0,1,2.52,3.37c.13,1.43.31,2.74.54,4q.18,1.55,1.62,9.91t2.18,12.77A61.5,61.5,0,0,1,248,84.77a39.7,39.7,0,0,1-8.4,20.68,31.76,31.76,0,0,1-6.47,6.48A15.62,15.62,0,0,1,222.92,115a14.86,14.86,0,0,1-9.95-4.16,8,8,0,0,1-2.3-7.26,31.87,31.87,0,0,1,1.2-5,69.15,69.15,0,0,1,15.45-25.9q5.73-6.14,11.32-8.4a2.21,2.21,0,0,0,.35-1.16,3.41,3.41,0,0,0-.15-1,3.48,3.48,0,0,1-.15-1.06c0-.13-.24-1.27-.66-3.43a8,8,0,0,1-1.13,1.2,14.4,14.4,0,0,1-1,1.49,21,21,0,0,1-1.42,1.75A10.33,10.33,0,0,1,225.67,66a11.61,11.61,0,0,1-6.16-2.18,6.78,6.78,0,0,1-3-4.85,17.16,17.16,0,0,1-.1-3.43,39.51,39.51,0,0,1,5.85-16.24c.06-.08.71-.83,2-2.26q1.94,0,2,0,2.59.49,1.83,3-2.3,7.56-2.64,8.71-.61,2.69-1.45,9a7.36,7.36,0,0,0,.68,3.53,3.09,3.09,0,0,0,2.23-1.42,45.26,45.26,0,0,0,3.86-4.7,32.51,32.51,0,0,0,4.62-12c0-.06,0-.8.15-2.2,0-.27,0-.64.07-1.1A4.77,4.77,0,0,0,235.55,38.86Zm4.54,35.38c0-.52-.08-1.1-.16-1.74s-.16-1.39-.21-2.24-.08-1.53-.11-2.05c-.43.48-1,1-1.6,1.69s-1.08,1.1-1.33,1.35a68.12,68.12,0,0,0-16,26.4,35.85,35.85,0,0,0-1.74,8.63,5.9,5.9,0,0,0,1.45,4.56,4.89,4.89,0,0,0,3.46-.86,35,35,0,0,0,3.6-2.57,38.06,38.06,0,0,0,6.45-7.76A41.07,41.07,0,0,0,240.09,74.24Z"/><path class="cls-1" d="M50,147c3,1.14,4.44,3,4.27,5.7-.34,4.09-.68,7.08-1,9a179,179,0,0,0-2.17,18.8c0,1.06,0,2,0,3a4.69,4.69,0,0,1-.53,2.57,3.18,3.18,0,0,1-2.81-.44,5,5,0,0,1-2.26-2.93,53.59,53.59,0,0,1-.74-5.59,162,162,0,0,1,.46-19.45L45,156.11a11.28,11.28,0,0,0-1.51,1.58,69.25,69.25,0,0,0-6.44,9.64,33.35,33.35,0,0,1-2.4,4,26.63,26.63,0,0,1-2,2.46,8.51,8.51,0,0,1-7.07-1.31,4.59,4.59,0,0,1-1.88-2.7,11.8,11.8,0,0,1-.41-3.28,2.7,2.7,0,0,0-.75.49,1.86,1.86,0,0,0-.42.48q-.09.16-.33.66c-.17.32-.28.5-.36.51-.23.38-1.24,2.17-3.05,5.38s-3.19,5.64-4.16,7.27-2,3.18-3.15,4.86a5.65,5.65,0,0,1-6.24,2.38,6.18,6.18,0,0,1-3.25-1.84A4.68,4.68,0,0,1,0,183.65a23.93,23.93,0,0,1,.18-4.38q.71-4.58,1.89-11.43.7-4,1.68-8.92a19.41,19.41,0,0,1,1-3.55,3.07,3.07,0,0,1,3.25-2,4.37,4.37,0,0,1,3,1,3.21,3.21,0,0,1,1,2.73,5.2,5.2,0,0,1,0,.58,4.74,4.74,0,0,1,0,.64c0,.17,0,.35,0,.55a3.13,3.13,0,0,1-.06.6,2.61,2.61,0,0,1-.17.58c-.08.18-.18.38-.28.59a3.73,3.73,0,0,1-.35.57c-.14.09-.24.5-.33,1.24-.6,3.94-1.15,7.41-1.63,10.39l.24.65q2.12-3.77,2.29-4a115.62,115.62,0,0,1,9.28-14.33l.64-.82a4.52,4.52,0,0,1,4.92-2.13c3,.48,4.73,1.73,5.26,3.73,0,.19.1,1.1.19,2.73,0,.06,0,.65,0,1.78a4,4,0,0,0,.72-.39,1.35,1.35,0,0,0,.43-.43l.35-.56a4.91,4.91,0,0,1,.31-.45,47.68,47.68,0,0,1,7.51-9.35c.44-.42.77-.71,1-.88A7,7,0,0,1,50,147Z"/><path class="cls-1" d="M77.33,170a5.81,5.81,0,0,1,2.61-1.2l.31,1a2.14,2.14,0,0,1-.14,1,12.94,12.94,0,0,1-4.21,5.3,11.62,11.62,0,0,1-7.07,2.79q-6.28.33-9.49-4.49a11.52,11.52,0,0,1-1.65-6.2,51.93,51.93,0,0,1,1.61-11.08,63.39,63.39,0,0,1,3.86-11.81c.5-.95.83-1.57,1-1.87a3.67,3.67,0,0,1,2-1.57,4,4,0,0,1,2.61,0A2.68,2.68,0,0,1,70.27,143a1.59,1.59,0,0,1-.08,1.65,10.54,10.54,0,0,0-.58,1.44c-.16.53-.28,1-.36,1.36s-.18.86-.29,1.44-.22,1-.3,1.39A131.79,131.79,0,0,0,66,167.09a17.7,17.7,0,0,0,.27,6.67A3,3,0,0,0,68,176.1a10.3,10.3,0,0,0,4.83-2.61Q75.64,171.17,77.33,170Zm.92-49.48a1.93,1.93,0,0,1,1.53.6,1.11,1.11,0,0,1,.09,1.36,9.57,9.57,0,0,1-1.09,1.4c-.57.57-1.34,1.38-2.32,2.42l-2.11,2.29a14.74,14.74,0,0,0-1.77,2c-.18.23-.91,1.36-2.19,3.38.38.78.58,1.21.59,1.27l0,.31a7.59,7.59,0,0,1-3.92.31A5.28,5.28,0,0,1,64,134.1a1.62,1.62,0,0,1-.27-2,9.87,9.87,0,0,1,1.13-1.79,48.45,48.45,0,0,1,9.3-8.32A7.72,7.72,0,0,1,78.25,120.47Z"/><path class="cls-1" d="M107.25,160.23a5.85,5.85,0,0,1,1.93,3.83c.07,1.34-.61,2.83-2,4.49a30.33,30.33,0,0,1-7.68,6.12,40.25,40.25,0,0,1-8.44,3.9,26.32,26.32,0,0,1-3.63.6,4.18,4.18,0,0,1-.92,0l-1-.1a5.76,5.76,0,0,1-3.61-.49,16.15,16.15,0,0,1-3.31-2.42,2.94,2.94,0,0,1-.8-3,35.41,35.41,0,0,1,1.73-4.58c.21-.44,1.76-3,4.62-7.8a3.52,3.52,0,0,0,.27-.4c0-.11.14-.26.25-.45a4.6,4.6,0,0,1,.27-.39q-4.27-2.14-4.53-2.29-.92-.61-2.1-1.47a18.33,18.33,0,0,1-2.61-2.37,12.51,12.51,0,0,1-2.16-2.94,6.45,6.45,0,0,1,.63-5.55,20.39,20.39,0,0,1,2.21-3.29,27,27,0,0,1,12.82-8.3,10.54,10.54,0,0,1,10.06,1.52,3.52,3.52,0,0,1,1.24,4.7c-.06.08-.45.81-1.16,2.2a4.28,4.28,0,0,1-2.27-.55,6.21,6.21,0,0,1-.75-2.72,8.9,8.9,0,0,0-4.34,2.81q-6,6.18-6.9,11.3a12,12,0,0,0,4.65,1.18q3.34-3.3,3.63-3.56A14,14,0,0,1,98,146.81l1.51-.39c.17.89.26,1.36.28,1.43a6.3,6.3,0,0,1-1.42,3.23c-.07.08-.85,1.12-2.36,3.12a1.22,1.22,0,0,0,.56.54,4.68,4.68,0,0,0,1,.3,3.3,3.3,0,0,1,.72.21,19,19,0,0,1,8.46,4.4.6.6,0,0,0,.16.26A1.7,1.7,0,0,1,107.25,160.23ZM96.6,165.05a7.88,7.88,0,0,0,2-3.74,25.23,25.23,0,0,0-7.28-.68,29.63,29.63,0,0,0-4.23,6.65,17.25,17.25,0,0,0-1.84,6.08Q92.9,169.41,96.6,165.05Z"/><path class="cls-1" d="M138,152.93c.68.4,1,1.2.81,2.41a6.66,6.66,0,0,1-1.72,3.49,33.78,33.78,0,0,1-6,5.41,16.89,16.89,0,0,1-8.7,3.16,10.39,10.39,0,0,1-8.49-3.41,5,5,0,0,1-1.17-4.91c.68-3.55,1.3-6.41,1.87-8.56A47.41,47.41,0,0,1,119.9,138a25.28,25.28,0,0,1,3.15-3.67,6.51,6.51,0,0,1,5-1.85,7.09,7.09,0,0,1,5.53,2.19,2.2,2.2,0,0,1,.86,1.52,13.82,13.82,0,0,1-.74,5.58,1.8,1.8,0,0,1-2.25-1.05c0-.19-.53-1.41-1.5-3.67a7.29,7.29,0,0,1-1.15,1.11,44.9,44.9,0,0,0-4.27,10.21,58.53,58.53,0,0,0-2.69,12,3.85,3.85,0,0,0,.4,2.69,25.75,25.75,0,0,0,7.44-4.4c.53-.43,1.27-1.07,2.25-1.91s1.69-1.45,2.15-1.8A7.87,7.87,0,0,1,138,152.93Z"/><path class="cls-1" d="M180,147.11c.11,1,.17,1.48.18,1.54a3.85,3.85,0,0,1-1.46,1.86,8.4,8.4,0,0,1-8,1,12.34,12.34,0,0,1-7.55-8.52c0-.13-.28-1.46-.77-4a1.15,1.15,0,0,0-.63.27c-.13.12-.23.24-.33.35a1.66,1.66,0,0,0-.24.5,1.59,1.59,0,0,1-.2.43,170.63,170.63,0,0,0-13.53,30.56,20.19,20.19,0,0,1-.73,2.12,14.4,14.4,0,0,1-1.61.46,10.12,10.12,0,0,0-1.51.44c-.33-.14-.84-.33-1.53-.6a11,11,0,0,1-1.56-.69,5.89,5.89,0,0,1-.27-3.2q.81-8.76,4-27.45.54-3.07,6.53-39.19,1.48-9.37,2-12a16.76,16.76,0,0,1,.63-2.59,6.14,6.14,0,0,1,3.7.33c.69.43,1.05,1.33,1.09,2.7q-.12,7-.48,11.65-2.25,23.16-5.13,38.24l-.2,1.32a1,1,0,0,1,.35,0q1.26-2.32,1.35-2.43,4.17-7.81,6.45-11.92a16.52,16.52,0,0,1,1.33-1.93,4.45,4.45,0,0,1,5.12-1.68q3.69.87,3.57,3.76c-.08.8-.17,1.91-.27,3.31s-.19,2.38-.24,2.91a35.75,35.75,0,0,0,.52,10.37,7.54,7.54,0,0,0,2.16,4.13,10.94,10.94,0,0,0,2.34-.84,14.61,14.61,0,0,1,2.32-.9A12.73,12.73,0,0,1,180,147.11Z"/><path class="cls-1" d="M195.14,147.25a5.79,5.79,0,0,1,2.61-1.19l.31,1a2.12,2.12,0,0,1-.15,1,12.9,12.9,0,0,1-4.2,5.31,11.72,11.72,0,0,1-7.07,2.79q-6.3.33-9.5-4.49a11.43,11.43,0,0,1-1.64-6.2,50.67,50.67,0,0,1,1.61-11.08A62.66,62.66,0,0,1,181,122.62c.49-1,.83-1.58,1-1.87a3.67,3.67,0,0,1,2-1.57,4,4,0,0,1,2.61,0,2.67,2.67,0,0,1,1.52,1.14A1.57,1.57,0,0,1,188,122a9,9,0,0,0-.57,1.44,13.85,13.85,0,0,0-.37,1.36c-.08.37-.17.85-.29,1.44s-.21,1-.3,1.39a133.5,133.5,0,0,0-2.66,16.81,17.52,17.52,0,0,0,.26,6.67,3.06,3.06,0,0,0,1.7,2.34,10.44,10.44,0,0,0,4.83-2.61C192.49,149.25,194,148.07,195.14,147.25Zm.91-49.47a1.93,1.93,0,0,1,1.54.6,1.1,1.1,0,0,1,.09,1.36,11,11,0,0,1-1.09,1.4c-.58.57-1.35,1.38-2.32,2.42s-1.68,1.8-2.11,2.28a16.09,16.09,0,0,0-1.77,2c-.19.24-.92,1.36-2.19,3.39.38.78.57,1.21.59,1.27l-.06.31a7.56,7.56,0,0,1-3.91.31,5.3,5.3,0,0,1-3.06-1.74,1.6,1.6,0,0,1-.28-2,11.2,11.2,0,0,1,1.13-1.8,48.77,48.77,0,0,1,9.3-8.31A7.72,7.72,0,0,1,196.05,97.78Z"/><path class="cls-1" d="M236.94,119.05c1.1.64,1.33,1.59.66,2.84a19.06,19.06,0,0,1-2.21,3.29q-3.91,5-6.25,7.62-3.91,4.41-12.25,13.62-.48.5-1,1.05c-.38.37-.78.75-1.19,1.16l-1,1q-2.83,2.91-8.59,3.73a8.08,8.08,0,0,1-6-1.41,6.6,6.6,0,0,1-3.12-4.74c0-.58,0-1.44,0-2.56a15,15,0,0,0-.07-2.16,28.69,28.69,0,0,1,.81-5.79,53.63,53.63,0,0,1,4-12.32,35.71,35.71,0,0,1,4-6.21,7.4,7.4,0,0,1,5.05-2.7,7.81,7.81,0,0,1,5.61,1.44,3.66,3.66,0,0,1,1.59,2.95,25.54,25.54,0,0,1-.42,3.74,24.5,24.5,0,0,1-7.1,11.44q-.18.24-4,3.63c-.6,4.33-.64,7.5-.1,9.5,1.61-1.1,2.44-1.69,2.5-1.76,3.08-2.51,5.16-4.26,6.26-5.26a242.44,242.44,0,0,0,19.05-19.57A6.84,6.84,0,0,1,236.94,119.05Zm-27.25,1.79a24.58,24.58,0,0,0-4.31,11.8,18.38,18.38,0,0,0,2.06-3.46,25.61,25.61,0,0,0,1.55-4.3A20.3,20.3,0,0,0,209.69,120.84Z"/><path class="cls-1" d="M256,125.86a4.36,4.36,0,0,1,1-.09,2.24,2.24,0,0,1,.72.16,2.32,2.32,0,0,1,.58.38c.18.16.42.38.7.66a.81.81,0,0,1-.31.5l-.44.34a2.44,2.44,0,0,1-.63.26,1.27,1.27,0,0,0-.52.25l-4.38,2c-1.95.9-3.44,1.59-4.49,2.05q-2.19,1-7.57,3.73c-.07,0-.79.42-2.15,1.21-.22,1.22-.5,2.91-.84,5s-.61,3.56-.78,4.25a10,10,0,0,1,1.58,1.08q3.48,2.19,3.76,2.43a9.45,9.45,0,0,1,3.82,7.47,20.11,20.11,0,0,1-2.76,9.82,27,27,0,0,1-2.41,3.42q-2,2.47-6.11,2.47-4.92-.15-6.3-3.24a11.78,11.78,0,0,1-1.14-4.12q-.59-5.43.6-17.51a7.82,7.82,0,0,0,.11-1.8,6.85,6.85,0,0,0-1.18-.51,15.68,15.68,0,0,0-1.61-.43,12.78,12.78,0,0,1-1.32-.34c-2-.47-3.7-.93-5.14-1.38-1.14-.37-1.7-.92-1.69-1.65.13-.55.8-1.17,2-1.87q1.46-.67,4.89-2.33l6-2.84a15,15,0,0,1,.6-2.19,288.84,288.84,0,0,1,10-35.41q.78-2.43,3-7.59a7.46,7.46,0,0,1,2.4-3.43,3.72,3.72,0,0,1,4,1,32.07,32.07,0,0,0-.58,3.47c-.82,3.26-2,8-3.48,14.11s-2.56,10.54-3.19,13.16q-1.16,4.67-2.55,11a4.84,4.84,0,0,0-.14,1.61c2.19-.82,3.35-1.24,3.5-1.27,4.8-1.78,7.85-2.89,9.12-3.34A12.8,12.8,0,0,1,256,125.86ZM228.5,143.6a8.19,8.19,0,0,0,.12-1.71,4.27,4.27,0,0,0-1.29.35c-.08,0-.56.24-1.46.68A4.16,4.16,0,0,0,228.5,143.6Zm10.61,12.08a6.8,6.8,0,0,0-1.77-3.91.91.91,0,0,0-1.1-.38Q235,162,235.42,166.56a.66.66,0,0,0,.3.09H236l.55-.7A18.6,18.6,0,0,0,239.11,155.68Z"/></g></g></svg>