<svg width="1920" height="1080" viewBox="0 0 1920 1080" fill="none" xmlns="http://www.w3.org/2000/svg">
<rect width="1920" height="1080" fill="url(#paint0_radial_7:2)"/>
<path d="M273.141 710.797C255.984 710.797 239.391 709.742 223.359 707.633C207.469 705.523 192.492 701.586 178.43 695.82C164.508 690.055 151.781 682.672 140.25 673.672C128.719 664.531 118.805 653.633 110.508 640.977C102.211 628.18 95.7422 613.555 91.1016 597.102C86.6016 580.508 84.3516 561.875 84.3516 541.203C84.3516 521.797 86.6016 504.289 91.1016 488.68C95.6016 473.07 101.93 459.219 110.086 447.125C118.242 435.031 128.016 424.625 139.406 415.906C150.938 407.188 163.664 400.086 177.586 394.602C191.648 388.977 206.695 384.828 222.727 382.156C238.898 379.484 255.703 378.148 273.141 378.148C290.578 378.148 307.383 379.484 323.555 382.156C339.727 384.828 354.844 388.977 368.906 394.602C382.969 400.227 395.695 407.398 407.086 416.117C418.617 424.836 428.461 435.242 436.617 447.336C444.773 459.43 451.102 473.281 455.602 488.891C460.102 504.359 462.352 521.797 462.352 541.203C462.352 571.578 457.359 597.664 447.375 619.461C437.531 641.117 424.031 658.836 406.875 672.617C389.719 686.398 369.68 696.242 346.758 702.148C323.836 707.914 299.297 710.797 273.141 710.797ZM273.141 474.547C264.141 474.547 256.547 475.742 250.359 478.133C244.312 480.383 239.25 483.406 235.172 487.203C231.234 491 228.211 495.289 226.102 500.07C223.992 504.852 222.375 509.703 221.25 514.625C220.266 519.547 219.703 524.328 219.562 528.969C219.422 533.609 219.352 537.688 219.352 541.203C219.352 544.719 219.422 548.797 219.562 553.438C219.703 558.078 220.266 562.93 221.25 567.992C222.375 572.914 223.992 577.836 226.102 582.758C228.211 587.68 231.234 592.109 235.172 596.047C239.25 599.844 244.312 602.938 250.359 605.328C256.547 607.719 264.141 608.914 273.141 608.914C282.141 608.914 289.664 607.719 295.711 605.328C301.898 602.938 307.031 599.844 311.109 596.047C315.188 592.109 318.281 587.68 320.391 582.758C322.641 577.836 324.258 572.914 325.242 567.992C326.227 562.93 326.789 558.078 326.93 553.438C327.211 548.797 327.352 544.719 327.352 541.203C327.352 537.688 327.211 533.609 326.93 528.969C326.789 524.328 326.227 519.547 325.242 514.625C324.258 509.703 322.641 504.852 320.391 500.07C318.281 495.289 315.188 491 311.109 487.203C307.031 483.406 301.898 480.383 295.711 478.133C289.664 475.742 282.141 474.547 273.141 474.547ZM842.461 479.82C842.32 484.32 842.25 488.75 842.25 493.109C842.25 497.328 842.25 501.477 842.25 505.555V541.203C842.25 571.016 838.172 596.75 830.016 618.406C822 639.922 810.961 657.711 796.898 671.773C782.977 685.695 766.664 695.68 747.961 701.727C729.258 707.773 709.359 710.797 688.266 710.797C671.812 710.797 655.992 709.672 640.805 707.422C625.758 705.312 611.695 701.305 598.617 695.398C585.539 689.352 573.656 681.758 562.969 672.617C552.281 663.336 543.07 652.367 535.336 639.711C527.742 626.914 521.836 612.359 517.617 596.047C513.539 579.734 511.5 561.453 511.5 541.203V479.82L484.5 474.547V383H659.789V474.547L632.789 479.82V507.031C632.789 510.547 632.789 514.133 632.789 517.789C632.789 521.305 632.789 524.609 632.789 527.703C632.93 530.797 633 533.539 633 535.93C633 538.32 633 540.078 633 541.203C633 544.719 633.07 548.797 633.211 553.438C633.352 558.078 633.914 562.93 634.898 567.992C636.023 572.914 637.641 577.836 639.75 582.758C641.859 587.68 644.883 592.109 648.82 596.047C652.898 599.844 657.961 602.938 664.008 605.328C670.195 607.719 677.789 608.914 686.789 608.914C695.789 608.914 703.312 607.719 709.359 605.328C715.547 602.938 720.68 599.844 724.758 596.047C728.836 592.109 731.93 587.68 734.039 582.758C736.289 577.836 737.906 572.914 738.891 567.992C739.875 562.93 740.438 558.078 740.578 553.438C740.859 548.797 741 544.719 741 541.203C741 540.078 741 538.32 741 535.93C741 533.539 740.93 530.797 740.789 527.703C740.789 524.609 740.789 521.305 740.789 517.789C740.789 514.133 740.789 510.547 740.789 507.031V479.82L713.789 474.547V383H869.461V474.547L842.461 479.82ZM1187.55 383V491H1152.12C1149.73 487.906 1146.98 484.742 1143.89 481.508C1140.8 478.273 1137.35 475.391 1133.55 472.859C1129.76 470.188 1125.61 468.078 1121.11 466.531C1116.61 464.844 1111.76 464 1106.55 464V610.18L1133.55 615.453V707H944.555V615.453L971.555 610.18V464C966.352 464 961.5 464.844 957 466.531C952.5 468.078 948.352 470.188 944.555 472.859C940.758 475.391 937.312 478.273 934.219 481.508C931.125 484.742 928.383 487.906 925.992 491H890.555V383H1187.55Z" fill="#AD6E10"/>
<path d="M1255.77 677.07L1227.01 601.203L1216.32 599.516V569H1284.59V599.516L1276.86 601.203L1289.02 641.211L1301.19 601.203L1293.45 599.516V569H1361.73V599.516L1353.99 601.203L1366.16 641.211L1378.32 601.203L1370.59 599.516V569H1422.34V599.516L1411.72 601.203L1382.96 677.07H1332.9L1319.33 635.727L1305.83 677.07H1255.77ZM1489.91 678.266C1484.19 678.266 1478.66 677.914 1473.31 677.211C1468.02 676.508 1463.02 675.195 1458.34 673.273C1453.7 671.352 1449.45 668.891 1445.61 665.891C1441.77 662.844 1438.46 659.211 1435.7 654.992C1432.93 650.727 1430.77 645.852 1429.23 640.367C1427.73 634.836 1426.98 628.625 1426.98 621.734C1426.98 615.266 1427.73 609.43 1429.23 604.227C1430.73 599.023 1432.84 594.406 1435.55 590.375C1438.27 586.344 1441.53 582.875 1445.33 579.969C1449.17 577.062 1453.41 574.695 1458.05 572.867C1462.74 570.992 1467.76 569.609 1473.1 568.719C1478.49 567.828 1484.09 567.383 1489.91 567.383C1495.72 567.383 1501.32 567.828 1506.71 568.719C1512.1 569.609 1517.14 570.992 1521.83 572.867C1526.52 574.742 1530.76 577.133 1534.55 580.039C1538.4 582.945 1541.68 586.414 1544.4 590.445C1547.12 594.477 1549.23 599.094 1550.73 604.297C1552.23 609.453 1552.98 615.266 1552.98 621.734C1552.98 631.859 1551.31 640.555 1547.98 647.82C1544.7 655.039 1540.2 660.945 1534.48 665.539C1528.77 670.133 1522.09 673.414 1514.45 675.383C1506.8 677.305 1498.62 678.266 1489.91 678.266ZM1489.91 599.516C1486.91 599.516 1484.38 599.914 1482.31 600.711C1480.3 601.461 1478.61 602.469 1477.25 603.734C1475.94 605 1474.93 606.43 1474.23 608.023C1473.52 609.617 1472.98 611.234 1472.61 612.875C1472.28 614.516 1472.09 616.109 1472.05 617.656C1472 619.203 1471.98 620.562 1471.98 621.734C1471.98 622.906 1472 624.266 1472.05 625.812C1472.09 627.359 1472.28 628.977 1472.61 630.664C1472.98 632.305 1473.52 633.945 1474.23 635.586C1474.93 637.227 1475.94 638.703 1477.25 640.016C1478.61 641.281 1480.3 642.312 1482.31 643.109C1484.38 643.906 1486.91 644.305 1489.91 644.305C1492.91 644.305 1495.41 643.906 1497.43 643.109C1499.49 642.312 1501.2 641.281 1502.56 640.016C1503.92 638.703 1504.95 637.227 1505.66 635.586C1506.41 633.945 1506.95 632.305 1507.27 630.664C1507.6 628.977 1507.79 627.359 1507.84 625.812C1507.93 624.266 1507.98 622.906 1507.98 621.734C1507.98 620.562 1507.93 619.203 1507.84 617.656C1507.79 616.109 1507.6 614.516 1507.27 612.875C1506.95 611.234 1506.41 609.617 1505.66 608.023C1504.95 606.43 1503.92 605 1502.56 603.734C1501.2 602.469 1499.49 601.461 1497.43 600.711C1495.41 599.914 1492.91 599.516 1489.91 599.516ZM1680.59 677H1635.88C1634.47 674.328 1633.02 671.492 1631.52 668.492C1630.02 665.492 1628.56 662.375 1627.16 659.141C1625.75 655.906 1624.44 652.555 1623.22 649.086C1622 645.617 1620.97 642.055 1620.12 638.398H1617.66V677H1563.66V646.484L1572.66 644.727V601.273L1563.66 599.516V569H1624.91C1633.02 569 1640.02 569.375 1645.93 570.125C1651.84 570.875 1656.85 571.953 1660.98 573.359C1665.1 574.719 1668.43 576.406 1670.96 578.422C1673.54 580.391 1675.53 582.641 1676.94 585.172C1678.39 587.656 1679.35 590.398 1679.82 593.398C1680.34 596.352 1680.59 599.492 1680.59 602.82C1680.59 606.195 1680.27 609.266 1679.61 612.031C1679 614.75 1677.9 617.258 1676.3 619.555C1674.71 621.852 1672.53 623.961 1669.77 625.883C1667 627.758 1663.48 629.539 1659.22 631.227C1660.11 633.102 1661.45 635.305 1663.23 637.836C1665.01 640.32 1666.93 642.875 1668.99 645.5C1671.05 648.078 1673.12 650.609 1675.18 653.094C1677.29 655.531 1679.09 657.617 1680.59 659.352V677ZM1617.66 617.656C1620.38 617.656 1622.84 617.539 1625.05 617.305C1627.3 617.07 1629.2 616.531 1630.74 615.688C1632.34 614.844 1633.55 613.602 1634.4 611.961C1635.24 610.32 1635.66 608.117 1635.66 605.352C1635.66 602.633 1635.24 600.477 1634.4 598.883C1633.55 597.242 1632.34 595.977 1630.74 595.086C1629.2 594.195 1627.3 593.609 1625.05 593.328C1622.84 593.047 1620.38 592.906 1617.66 592.906V617.656ZM1822.7 586.297C1820.45 587.938 1818.24 589.695 1816.09 591.57C1813.93 593.445 1811.87 595.367 1809.9 597.336C1807.93 599.305 1806.05 601.273 1804.27 603.242C1802.54 605.211 1800.95 607.109 1799.49 608.938C1797.71 611.094 1796.02 613.227 1794.43 615.336C1792.84 617.445 1791.31 619.578 1789.86 621.734C1791.83 624.453 1793.77 627.102 1795.7 629.68C1797.66 632.211 1799.63 634.742 1801.6 637.273C1803.24 639.383 1804.95 641.562 1806.73 643.812C1808.56 646.016 1810.39 648.172 1812.22 650.281C1814.05 652.391 1815.83 654.383 1817.56 656.258C1819.34 658.086 1821.01 659.68 1822.55 661.039L1822.62 677H1766.94L1747.04 631.93V677H1693.04V646.484L1702.04 644.727V601.273L1693.04 599.516V569H1747.04V612.312L1766.94 569H1822.62L1822.7 586.297Z" fill="#5C3A12"/>
<path d="M1314.71 490.109C1314.66 494.75 1313.98 498.875 1312.67 502.484C1311.41 506.047 1309.62 509.141 1307.33 511.766C1305.03 514.344 1302.34 516.547 1299.24 518.375C1296.15 520.156 1292.82 521.609 1289.26 522.734C1285.7 523.812 1281.95 524.492 1278.01 524.773C1274.12 525.102 1270.2 525.266 1266.27 525.266C1259.14 525.266 1252.88 524.984 1247.49 524.422C1244.4 524.047 1239.78 523.016 1233.64 521.328C1228.62 519.969 1224.69 518.539 1221.83 517.039V489.266H1242.99C1245.43 492.641 1248.17 495.125 1251.22 496.719C1254.31 498.312 1257.48 499.109 1260.71 499.109C1261.55 499.109 1262.49 499.039 1263.52 498.898C1264.55 498.758 1265.52 498.359 1266.41 497.703C1267.34 497.047 1268.12 496.016 1268.73 494.609C1269.38 493.203 1269.71 491.234 1269.71 488.703C1265.68 488.328 1261.67 487.789 1257.69 487.086C1253.75 486.383 1249.98 485.422 1246.37 484.203C1242.76 482.984 1239.38 481.461 1236.24 479.633C1233.15 477.758 1230.45 475.508 1228.16 472.883C1225.91 470.258 1224.12 467.188 1222.81 463.672C1221.55 460.109 1220.91 456.008 1220.91 451.367C1220.91 446.398 1221.57 442.039 1222.88 438.289C1224.2 434.492 1225.98 431.234 1228.23 428.516C1230.52 425.75 1233.2 423.477 1236.24 421.695C1239.34 419.867 1242.64 418.414 1246.16 417.336C1249.72 416.258 1253.4 415.578 1257.2 415.297C1261.04 415.016 1264.86 414.875 1268.66 414.875C1274.19 414.875 1279.16 415.086 1283.56 415.508C1288.02 415.883 1292.02 416.492 1295.59 417.336C1299.15 418.18 1302.29 419.141 1305.01 420.219C1307.77 421.25 1310.23 422.258 1312.39 423.242V450.664H1291.23C1288.84 447.289 1286.16 444.805 1283.21 443.211C1280.3 441.617 1277.3 440.82 1274.21 440.82C1273.37 440.82 1272.41 440.938 1271.33 441.172C1270.25 441.359 1269.24 441.852 1268.3 442.648C1267.37 443.398 1266.57 444.523 1265.91 446.023C1265.26 447.477 1264.93 449.469 1264.93 452C1273.13 452.281 1280.35 453.172 1286.59 454.672C1292.82 456.172 1298 458.445 1302.12 461.492C1306.3 464.492 1309.44 468.359 1311.55 473.094C1313.66 477.781 1314.71 483.453 1314.71 490.109ZM1381.3 471.336V524H1327.37V493.484L1336.37 491.727V448.273L1327.37 446.516V416H1381.3L1403.94 457.484L1426.37 416H1480.37V446.516L1471.37 448.273V491.727L1480.37 493.484V524H1426.37V471.336L1403.94 510.148L1381.3 471.336ZM1568.47 524L1564.67 505.859H1535.28L1531.55 524H1491.55V488.562L1500.2 486.805L1520.94 416H1579.02L1599.83 486.805L1608.48 488.562V524H1568.47ZM1541.33 481.742H1558.62L1549.98 441.031L1541.33 481.742ZM1736.66 524H1691.94C1690.53 521.328 1689.08 518.492 1687.58 515.492C1686.08 512.492 1684.62 509.375 1683.22 506.141C1681.81 502.906 1680.5 499.555 1679.28 496.086C1678.06 492.617 1677.03 489.055 1676.19 485.398H1673.73V524H1619.73V493.484L1628.73 491.727V448.273L1619.73 446.516V416H1680.97C1689.08 416 1696.09 416.375 1701.99 417.125C1707.9 417.875 1712.91 418.953 1717.04 420.359C1721.16 421.719 1724.49 423.406 1727.02 425.422C1729.6 427.391 1731.59 429.641 1733 432.172C1734.45 434.656 1735.41 437.398 1735.88 440.398C1736.4 443.352 1736.66 446.492 1736.66 449.82C1736.66 453.195 1736.33 456.266 1735.67 459.031C1735.06 461.75 1733.96 464.258 1732.37 466.555C1730.77 468.852 1728.59 470.961 1725.83 472.883C1723.06 474.758 1719.55 476.539 1715.28 478.227C1716.17 480.102 1717.51 482.305 1719.29 484.836C1721.07 487.32 1722.99 489.875 1725.05 492.5C1727.12 495.078 1729.18 497.609 1731.24 500.094C1733.35 502.531 1735.16 504.617 1736.66 506.352V524ZM1673.73 464.656C1676.45 464.656 1678.91 464.539 1681.11 464.305C1683.36 464.07 1685.26 463.531 1686.8 462.688C1688.4 461.844 1689.62 460.602 1690.46 458.961C1691.3 457.32 1691.73 455.117 1691.73 452.352C1691.73 449.633 1691.3 447.477 1690.46 445.883C1689.62 444.242 1688.4 442.977 1686.8 442.086C1685.26 441.195 1683.36 440.609 1681.11 440.328C1678.91 440.047 1676.45 439.906 1673.73 439.906V464.656ZM1843.46 416V452H1831.65C1830.85 450.969 1829.94 449.914 1828.91 448.836C1827.88 447.758 1826.73 446.797 1825.46 445.953C1824.2 445.062 1822.81 444.359 1821.31 443.844C1819.81 443.281 1818.2 443 1816.46 443V491.727L1825.46 493.484V524H1762.46V493.484L1771.46 491.727V443C1769.73 443 1768.11 443.281 1766.61 443.844C1765.11 444.359 1763.73 445.062 1762.46 445.953C1761.2 446.797 1760.05 447.758 1759.02 448.836C1757.98 449.914 1757.07 450.969 1756.27 452H1744.46V416H1843.46Z" fill="#5C3A12"/>
<defs>
<radialGradient id="paint0_radial_7:2" cx="0" cy="0" r="1" gradientUnits="userSpaceOnUse" gradientTransform="translate(960 540) rotate(90) scale(540 960)">
<stop stop-color="#F7F6EE"/>
<stop offset="1" stop-color="#FCF5BA"/>
</radialGradient>
</defs>
</svg>
