<svg width="1920" height="1080" viewBox="0 0 1920 1080" fill="none" xmlns="http://www.w3.org/2000/svg">
<rect width="1920" height="1080" fill="#180B0B"/>
<path d="M558.888 402.888H580.488C587.496 402.888 592.776 404.088 596.328 406.488C599.976 408.888 601.8 413.064 601.8 419.016V498.792C601.8 502.152 601.272 504.36 600.216 505.416C599.256 506.472 597.144 507 593.88 507H578.76V420.744C578.76 419.208 578.52 418.152 578.04 417.576C577.656 416.904 576.6 416.568 574.872 416.568H558.888V402.888ZM506.616 507H491.496C488.232 507 486.072 506.472 485.016 505.416C484.056 504.36 483.576 502.152 483.576 498.792V408.648C483.576 406.92 484.056 405.528 485.016 404.472C485.976 403.416 487.224 402.888 488.76 402.888H506.616V507ZM512.52 402.888H549.384C550.92 402.888 552.168 403.416 553.128 404.472C554.088 405.528 554.568 406.92 554.568 408.648V496.488H539.592C536.712 496.488 534.648 495.72 533.4 494.184C532.152 492.552 531.528 489.96 531.528 486.408V420.744C531.528 419.208 531.288 418.152 530.808 417.576C530.424 416.904 529.368 416.568 527.64 416.568H512.52V402.888ZM660.827 416.568H647.435C645.899 416.568 645.131 416.952 645.131 417.72V507H630.011C626.747 507 624.587 506.472 623.531 505.416C622.571 504.36 622.091 502.152 622.091 498.792V411.096C622.091 407.736 622.571 405.528 623.531 404.472C624.587 403.416 626.747 402.888 630.011 402.888H660.827V416.568ZM666.587 402.888H681.707C684.971 402.888 687.083 403.416 688.043 404.472C689.099 405.528 689.627 407.736 689.627 411.096V498.648C689.627 502.008 689.099 504.264 688.043 505.416C686.987 506.472 684.875 507 681.707 507H666.587V458.76H650.891V445.08H666.587V402.888ZM778.522 454.728L778.666 479.064C778.666 490.488 777.226 498.024 774.346 501.672C771.466 505.224 766.234 507 758.65 507H737.482V493.32H748.138C750.538 493.32 752.122 493.032 752.89 492.456C753.658 491.88 754.042 490.776 754.042 489.144V420.888C754.042 419.16 753.658 418.008 752.89 417.432C752.122 416.856 750.538 416.568 748.138 416.568H737.482V402.888H760.09C767.098 402.888 771.946 404.52 774.634 407.784C777.418 410.952 778.81 417.192 778.81 426.504L778.522 454.728ZM733.162 507.144H718.042C714.874 507.144 712.762 506.616 711.706 505.56C710.65 504.408 710.122 502.2 710.122 498.936V411.096C710.122 407.832 710.65 405.672 711.706 404.616C712.762 403.464 714.874 402.888 718.042 402.888H733.162V507.144ZM821.756 507H806.636C803.372 507 801.212 506.472 800.156 505.416C799.196 504.36 798.716 502.152 798.716 498.792V411.096C798.716 407.736 799.196 405.528 800.156 404.472C801.212 403.416 803.372 402.888 806.636 402.888H821.756V507ZM866.252 486.84V499.08C866.252 502.344 865.724 504.504 864.668 505.56C863.612 506.52 861.404 507 858.044 507H827.516V486.84H866.252ZM857.612 444.36V453C857.612 456.456 857.276 458.664 856.604 459.624C855.932 460.488 854.012 460.92 850.844 460.92H827.516V444.36H857.612ZM864.812 402.888V415.128C864.812 418.392 864.284 420.552 863.228 421.608C862.172 422.568 859.964 423.048 856.604 423.048H827.516V402.888H864.812ZM936.547 402.888V489.144C936.547 490.584 936.883 491.64 937.555 492.312C938.323 492.984 939.955 493.32 942.451 493.32H953.107V507H934.819C930.979 507 927.763 506.712 925.171 506.136C922.675 505.56 920.467 504.408 918.547 502.68C916.723 500.856 915.283 498.84 914.227 496.632C913.267 494.424 912.499 491.112 911.923 486.696C911.059 480.072 910.627 471.192 910.627 460.056C910.627 448.824 910.675 440.904 910.771 436.296C910.963 431.688 911.347 427.224 911.923 422.904C912.499 418.488 913.267 415.224 914.227 413.112C915.283 410.904 916.723 408.936 918.547 407.208C920.467 405.384 922.675 404.232 925.171 403.752C927.763 403.176 930.979 402.888 934.819 402.888H936.547ZM942.307 403.032H960.595C964.435 403.032 967.603 403.32 970.099 403.896C972.691 404.472 974.899 405.672 976.723 407.496C978.643 409.224 980.083 411.192 981.043 413.4C982.099 415.608 982.915 418.92 983.491 423.336C984.355 429.96 984.787 438.888 984.787 450.12C984.787 461.256 984.691 469.128 984.499 473.736C984.403 478.344 984.067 482.856 983.491 487.272C982.915 491.592 982.099 494.856 981.043 497.064C980.083 499.176 978.643 501.144 976.723 502.968C974.899 504.696 972.691 505.848 970.099 506.424C967.603 506.904 964.435 507.144 960.595 507.144H958.867V420.888C958.867 419.448 958.483 418.392 957.715 417.72C957.043 417.048 955.459 416.712 952.963 416.712H942.307V403.032ZM1027.07 507H1011.95C1008.68 507 1006.52 506.472 1005.47 505.416C1004.51 504.36 1004.03 502.2 1004.03 498.936V411.24C1004.03 407.88 1004.56 405.672 1005.61 404.616C1006.67 403.464 1008.78 402.888 1011.95 402.888H1027.07V507ZM1062.92 443.064V451.704C1062.92 455.16 1062.59 457.368 1061.92 458.328C1061.24 459.192 1059.32 459.624 1056.16 459.624H1032.83V443.064H1062.92ZM1068.68 402.888V415.272C1068.68 418.536 1068.16 420.696 1067.1 421.752C1066.04 422.712 1063.84 423.192 1060.48 423.192H1032.83V402.888H1068.68ZM455.709 682H440.589C437.325 682 435.165 681.472 434.109 680.416C433.149 679.36 432.669 677.2 432.669 673.936V586.24C432.669 582.88 433.197 580.672 434.253 579.616C435.309 578.464 437.421 577.888 440.589 577.888H455.709V682ZM491.565 618.064V626.704C491.565 630.16 491.229 632.368 490.557 633.328C489.885 634.192 487.965 634.624 484.797 634.624H461.469V618.064H491.565ZM497.325 577.888V590.272C497.325 593.536 496.797 595.696 495.741 596.752C494.685 597.712 492.477 598.192 489.117 598.192H461.469V577.888H497.325ZM535.625 577.888V664.144C535.625 665.584 535.961 666.64 536.633 667.312C537.401 667.984 539.033 668.32 541.529 668.32H552.185V682H533.897C530.057 682 526.841 681.712 524.249 681.136C521.753 680.56 519.545 679.408 517.625 677.68C515.801 675.856 514.361 673.84 513.305 671.632C512.345 669.424 511.577 666.112 511.001 661.696C510.137 655.072 509.705 646.192 509.705 635.056C509.705 623.824 509.753 615.904 509.849 611.296C510.041 606.688 510.425 602.224 511.001 597.904C511.577 593.488 512.345 590.224 513.305 588.112C514.361 585.904 515.801 583.936 517.625 582.208C519.545 580.384 521.753 579.232 524.249 578.752C526.841 578.176 530.057 577.888 533.897 577.888H535.625ZM541.385 578.032H559.673C563.513 578.032 566.681 578.32 569.177 578.896C571.769 579.472 573.977 580.672 575.801 582.496C577.721 584.224 579.161 586.192 580.121 588.4C581.177 590.608 581.993 593.92 582.569 598.336C583.433 604.96 583.865 613.888 583.865 625.12C583.865 636.256 583.769 644.128 583.577 648.736C583.481 653.344 583.145 657.856 582.569 662.272C581.993 666.592 581.177 669.856 580.121 672.064C579.161 674.176 577.721 676.144 575.801 677.968C573.977 679.696 571.769 680.848 569.177 681.424C566.681 681.904 563.513 682.144 559.673 682.144H557.945V595.888C557.945 594.448 557.561 593.392 556.793 592.72C556.121 592.048 554.537 591.712 552.041 591.712H541.385V578.032ZM626.147 682H611.027C607.763 682 605.603 681.472 604.547 680.416C603.587 679.36 603.107 677.152 603.107 673.792V583.648C603.107 581.92 603.587 580.528 604.547 579.472C605.507 578.416 606.755 577.888 608.291 577.888H626.147V682ZM631.907 577.888H650.195C655.763 577.888 660.131 578.32 663.299 579.184C666.563 580.048 669.011 581.776 670.643 584.368C672.275 586.864 673.283 589.696 673.667 592.864C674.147 595.936 674.387 600.304 674.387 605.968C674.387 611.632 674.147 615.952 673.667 618.928C673.283 621.904 672.275 624.688 670.643 627.28C669.107 629.872 666.659 631.696 663.299 632.752C660.035 633.808 655.667 634.336 650.195 634.336H631.907V620.656H642.563C645.059 620.656 646.643 620.32 647.315 619.648C648.083 618.976 648.467 617.92 648.467 616.48V595.888C648.467 594.352 648.083 593.248 647.315 592.576C646.643 591.904 645.059 591.568 642.563 591.568H631.907V577.888ZM645.731 638.8H663.587C666.467 638.8 668.531 639.616 669.779 641.248C671.027 642.784 671.651 645.328 671.651 648.88V682H650.915C649.379 682 648.131 681.472 647.171 680.416C646.211 679.36 645.731 677.968 645.731 676.24V638.8ZM717.031 577.888V664.144C717.031 665.584 717.367 666.64 718.039 667.312C718.807 667.984 720.439 668.32 722.935 668.32H733.591V682H715.303C711.463 682 708.247 681.712 705.655 681.136C703.159 680.56 700.951 679.408 699.031 677.68C697.207 675.856 695.767 673.84 694.711 671.632C693.751 669.424 692.983 666.112 692.407 661.696C691.543 655.072 691.111 646.192 691.111 635.056C691.111 623.824 691.159 615.904 691.255 611.296C691.447 606.688 691.831 602.224 692.407 597.904C692.983 593.488 693.751 590.224 694.711 588.112C695.767 585.904 697.207 583.936 699.031 582.208C700.951 580.384 703.159 579.232 705.655 578.752C708.247 578.176 711.463 577.888 715.303 577.888H717.031ZM722.791 625.264H748.135C757.543 625.264 762.247 629.584 762.247 638.224V668.176C762.247 674.128 761.767 677.92 760.807 679.552C759.943 681.184 757.351 682 753.031 682H739.351V643.12C739.351 641.584 739.111 640.528 738.631 639.952C738.247 639.28 737.191 638.944 735.463 638.944H722.791V625.264ZM722.791 577.888H741.079C748.087 577.888 753.367 579.088 756.919 581.488C760.567 583.888 762.391 588.064 762.391 594.016V606.976C762.391 608.992 761.719 610 760.375 610H742.231C740.887 610 740.071 609.808 739.783 609.424C739.495 609.04 739.351 608.224 739.351 606.976V595.744C739.351 594.208 739.111 593.152 738.631 592.576C738.247 591.904 737.191 591.568 735.463 591.568H722.791V577.888ZM804.459 682H789.339C786.075 682 783.915 681.472 782.859 680.416C781.899 679.36 781.419 677.152 781.419 673.792V586.096C781.419 582.736 781.899 580.528 782.859 579.472C783.915 578.416 786.075 577.888 789.339 577.888H804.459V682ZM848.955 661.84V674.08C848.955 677.344 848.427 679.504 847.371 680.56C846.315 681.52 844.107 682 840.747 682H810.219V661.84H848.955ZM840.315 619.36V628C840.315 631.456 839.979 633.664 839.307 634.624C838.635 635.488 836.715 635.92 833.547 635.92H810.219V619.36H840.315ZM847.515 577.888V590.128C847.515 593.392 846.987 595.552 845.931 596.608C844.875 597.568 842.667 598.048 839.307 598.048H810.219V577.888H847.515ZM933.21 629.728L933.354 654.064C933.354 665.488 931.914 673.024 929.034 676.672C926.154 680.224 920.922 682 913.338 682H892.17V668.32H902.826C905.226 668.32 906.81 668.032 907.578 667.456C908.346 666.88 908.73 665.776 908.73 664.144V595.888C908.73 594.16 908.346 593.008 907.578 592.432C906.81 591.856 905.226 591.568 902.826 591.568H892.17V577.888H914.778C921.786 577.888 926.634 579.52 929.322 582.784C932.106 585.952 933.498 592.192 933.498 601.504L933.21 629.728ZM887.85 682.144H872.73C869.562 682.144 867.45 681.616 866.394 680.56C865.338 679.408 864.81 677.2 864.81 673.936V586.096C864.81 582.832 865.338 580.672 866.394 579.616C867.45 578.464 869.562 577.888 872.73 577.888H887.85V682.144ZM1006.12 682H990.996C987.732 682 985.572 681.472 984.516 680.416C983.556 679.36 983.076 677.152 983.076 673.792V586.096C983.076 582.736 983.556 580.528 984.516 579.472C985.572 578.416 987.732 577.888 990.996 577.888H1006.12V682ZM1105.73 577.888V673.792C1105.73 677.152 1105.2 679.36 1104.14 680.416C1103.18 681.472 1101.07 682 1097.81 682H1077.36C1071.69 682 1067.95 681.136 1066.13 679.408C1064.4 677.68 1062.86 673.216 1061.52 666.016C1058.83 651.808 1054.94 628.864 1049.85 597.184C1049.47 594.784 1048.89 593.248 1048.13 592.576C1047.45 591.904 1046.25 591.52 1044.53 591.424H1026.81V577.888H1058.06C1060.46 577.888 1062.38 578.176 1063.82 578.752C1065.26 579.328 1066.41 580.576 1067.28 582.496C1068.24 584.32 1068.86 586.096 1069.15 587.824C1069.53 589.552 1069.92 591.568 1070.3 593.872C1070.78 596.656 1071.45 600.736 1072.32 606.112C1073.95 616.96 1076.49 632.272 1079.95 652.048C1081.29 660.496 1082.21 665.248 1082.69 666.304C1083.26 667.264 1084.22 667.84 1085.57 668.032V583.648C1085.57 581.92 1086.05 580.528 1087.01 579.472C1087.97 578.416 1089.21 577.888 1090.75 577.888H1105.73ZM1026.81 596.464H1041.79C1043.33 596.464 1044.57 596.992 1045.53 598.048C1046.49 599.104 1046.97 600.496 1046.97 602.224V673.792C1046.97 677.056 1046.54 679.264 1045.68 680.416C1044.81 681.472 1043.09 682 1040.49 682H1026.81V596.464Z" fill="#E7CCCC"/>
<path d="M1134.78 402.888V489.144C1134.78 490.68 1134.98 491.784 1135.36 492.456C1135.84 493.032 1136.94 493.32 1138.67 493.32H1154.22V507H1133.06C1126.05 507 1120.72 505.8 1117.07 503.4C1113.52 501 1111.74 496.824 1111.74 490.872V411.096C1111.74 407.736 1112.22 405.528 1113.18 404.472C1114.24 403.416 1116.4 402.888 1119.66 402.888H1134.78ZM1158.54 435H1173.52C1176.4 435 1178.46 435.816 1179.71 437.448C1180.96 438.984 1181.58 441.528 1181.58 445.08V489.144C1181.58 490.68 1181.78 491.784 1182.16 492.456C1182.64 493.032 1183.74 493.32 1185.47 493.32H1201.02V507H1163.73C1162.19 507 1160.94 506.472 1159.98 505.416C1159.02 504.36 1158.54 502.968 1158.54 501.24V435ZM1206.78 402.888H1221.9C1225.17 402.888 1227.33 403.416 1228.38 404.472C1229.44 405.528 1229.97 407.736 1229.97 411.096V501.24C1229.97 502.968 1229.44 504.36 1228.38 505.416C1227.42 506.472 1226.18 507 1224.64 507H1206.78V402.888ZM1273.44 507H1258.32C1255.06 507 1252.9 506.472 1251.84 505.416C1250.88 504.36 1250.4 502.152 1250.4 498.792V411.096C1250.4 407.736 1250.88 405.528 1251.84 404.472C1252.9 403.416 1255.06 402.888 1258.32 402.888H1273.44V507ZM1339.21 475.608H1359.37C1360.43 475.608 1360.96 476.28 1360.96 477.624V502.968C1360.96 505.656 1359.61 507 1356.93 507H1322.08V493.32H1335.47C1337.01 493.32 1337.77 493.176 1337.77 492.888C1337.87 492.504 1337.92 492.072 1337.92 491.592V477.192C1337.92 476.424 1338.01 475.992 1338.21 475.896C1338.4 475.704 1338.73 475.608 1339.21 475.608ZM1317.04 507H1301.92C1298.65 507 1296.49 506.472 1295.44 505.416C1294.48 504.36 1294 502.152 1294 498.792V411.096C1294 407.736 1294.48 405.528 1295.44 404.472C1296.49 403.416 1298.65 402.888 1301.92 402.888H1317.04V507ZM1419.65 475.608H1439.81C1440.87 475.608 1441.39 476.28 1441.39 477.624V502.968C1441.39 505.656 1440.05 507 1437.36 507H1402.51V493.32H1415.91C1417.44 493.32 1418.21 493.176 1418.21 492.888C1418.31 492.504 1418.35 492.072 1418.35 491.592V477.192C1418.35 476.424 1418.45 475.992 1418.64 475.896C1418.83 475.704 1419.17 475.608 1419.65 475.608ZM1397.47 507H1382.35C1379.09 507 1376.93 506.472 1375.87 505.416C1374.91 504.36 1374.43 502.152 1374.43 498.792V411.096C1374.43 407.736 1374.91 405.528 1375.87 404.472C1376.93 403.416 1379.09 402.888 1382.35 402.888H1397.47V507Z" fill="#D39999"/>
<path d="M1179.08 682H1163.96C1160.7 682 1158.54 681.472 1157.48 680.416C1156.52 679.36 1156.04 677.152 1156.04 673.792V583.648C1156.04 581.92 1156.52 580.528 1157.48 579.472C1158.44 578.416 1159.69 577.888 1161.23 577.888H1179.08V682ZM1184.84 577.888H1203.13C1208.7 577.888 1213.07 578.32 1216.24 579.184C1219.5 580.048 1221.95 581.776 1223.58 584.368C1225.21 586.864 1226.22 589.696 1226.6 592.864C1227.08 595.936 1227.32 600.304 1227.32 605.968C1227.32 611.632 1227.08 615.952 1226.6 618.928C1226.22 621.904 1225.21 624.688 1223.58 627.28C1222.04 629.872 1219.6 631.696 1216.24 632.752C1212.97 633.808 1208.6 634.336 1203.13 634.336H1184.84V620.656H1195.5C1198 620.656 1199.58 620.32 1200.25 619.648C1201.02 618.976 1201.4 617.92 1201.4 616.48V595.888C1201.4 594.352 1201.02 593.248 1200.25 592.576C1199.58 591.904 1198 591.568 1195.5 591.568H1184.84V577.888ZM1198.67 638.8H1216.52C1219.4 638.8 1221.47 639.616 1222.72 641.248C1223.96 642.784 1224.59 645.328 1224.59 648.88V682H1203.85C1202.32 682 1201.07 681.472 1200.11 680.416C1199.15 679.36 1198.67 677.968 1198.67 676.24V638.8ZM1283.94 591.568H1270.54C1269.01 591.568 1268.24 591.952 1268.24 592.72V682H1253.12C1249.86 682 1247.7 681.472 1246.64 680.416C1245.68 679.36 1245.2 677.152 1245.2 673.792V586.096C1245.2 582.736 1245.68 580.528 1246.64 579.472C1247.7 578.416 1249.86 577.888 1253.12 577.888H1283.94V591.568ZM1289.7 577.888H1304.82C1308.08 577.888 1310.19 578.416 1311.15 579.472C1312.21 580.528 1312.74 582.736 1312.74 586.096V673.648C1312.74 677.008 1312.21 679.264 1311.15 680.416C1310.1 681.472 1307.98 682 1304.82 682H1289.7V633.76H1274V620.08H1289.7V577.888ZM1358 577.888V664.144C1358 665.584 1358.34 666.64 1359.01 667.312C1359.78 667.984 1361.41 668.32 1363.9 668.32H1374.56V682H1356.27C1352.43 682 1349.22 681.712 1346.62 681.136C1344.13 680.56 1341.92 679.408 1340 677.68C1338.18 675.856 1336.74 673.84 1335.68 671.632C1334.72 669.424 1333.95 666.112 1333.38 661.696C1332.51 655.072 1332.08 646.192 1332.08 635.056C1332.08 623.824 1332.13 615.904 1332.22 611.296C1332.42 606.688 1332.8 602.224 1333.38 597.904C1333.95 593.488 1334.72 590.224 1335.68 588.112C1336.74 585.904 1338.18 583.936 1340 582.208C1341.92 580.384 1344.13 579.232 1346.62 578.752C1349.22 578.176 1352.43 577.888 1356.27 577.888H1358ZM1363.76 625.264H1389.1C1398.51 625.264 1403.22 629.584 1403.22 638.224V668.176C1403.22 674.128 1402.74 677.92 1401.78 679.552C1400.91 681.184 1398.32 682 1394 682H1380.32V643.12C1380.32 641.584 1380.08 640.528 1379.6 639.952C1379.22 639.28 1378.16 638.944 1376.43 638.944H1363.76V625.264ZM1363.76 577.888H1382.05C1389.06 577.888 1394.34 579.088 1397.89 581.488C1401.54 583.888 1403.36 588.064 1403.36 594.016V606.976C1403.36 608.992 1402.69 610 1401.34 610H1383.2C1381.86 610 1381.04 609.808 1380.75 609.424C1380.46 609.04 1380.32 608.224 1380.32 606.976V595.744C1380.32 594.208 1380.08 593.152 1379.6 592.576C1379.22 591.904 1378.16 591.568 1376.43 591.568H1363.76V577.888ZM1445.43 682H1430.31C1427.04 682 1424.88 681.472 1423.83 680.416C1422.87 679.36 1422.39 677.152 1422.39 673.792V586.096C1422.39 582.736 1422.87 580.528 1423.83 579.472C1424.88 578.416 1427.04 577.888 1430.31 577.888H1445.43V682ZM1489.92 661.84V674.08C1489.92 677.344 1489.4 679.504 1488.34 680.56C1487.28 681.52 1485.08 682 1481.72 682H1451.19V661.84H1489.92ZM1481.28 619.36V628C1481.28 631.456 1480.95 633.664 1480.28 634.624C1479.6 635.488 1477.68 635.92 1474.52 635.92H1451.19V619.36H1481.28ZM1488.48 577.888V590.128C1488.48 593.392 1487.96 595.552 1486.9 596.608C1485.84 597.568 1483.64 598.048 1480.28 598.048H1451.19V577.888H1488.48Z" fill="#A60B0B"/>
</svg>
