<svg width="540" height="1080" viewBox="0 0 540 1080" fill="none" xmlns="http://www.w3.org/2000/svg">
<rect width="540" height="1080" fill="url(#paint0_radial_7:4)"/>
<path d="M93.2581 582C88.8727 582 84.631 581.731 80.5331 581.192C76.4711 580.653 72.6428 579.646 69.0482 578.173C65.4895 576.7 62.2363 574.813 59.2887 572.514C56.3411 570.178 53.8069 567.393 51.686 564.159C49.5652 560.889 47.9117 557.152 46.7254 552.948C45.5751 548.708 45 543.947 45 538.665C45 533.706 45.5751 529.232 46.7254 525.244C47.8757 521.255 49.4933 517.715 51.5782 514.625C53.6631 511.535 56.1614 508.876 59.073 506.648C62.0206 504.42 65.2738 502.606 68.8325 501.204C72.4272 499.767 76.2734 498.707 80.3713 498.024C84.5052 497.341 88.8008 497 93.2581 497C97.7155 497 102.011 497.341 106.145 498.024C110.279 498.707 114.143 499.767 117.738 501.204C121.332 502.642 124.585 504.474 127.497 506.702C130.445 508.93 132.961 511.589 135.046 514.679C137.131 517.769 138.748 521.309 139.899 525.297C141.049 529.25 141.624 533.706 141.624 538.665C141.624 546.426 140.348 553.092 137.796 558.661C135.28 564.195 131.829 568.723 127.443 572.244C123.058 575.766 117.935 578.281 112.076 579.79C106.217 581.263 99.9442 582 93.2581 582ZM93.2581 521.632C90.9576 521.632 89.0164 521.938 87.4348 522.549C85.8891 523.123 84.595 523.896 83.5526 524.866C82.5461 525.836 81.7732 526.932 81.234 528.154C80.6948 529.376 80.2815 530.616 79.9939 531.873C79.7423 533.131 79.5985 534.353 79.5625 535.538C79.5266 536.724 79.5086 537.766 79.5086 538.665C79.5086 539.563 79.5266 540.605 79.5625 541.791C79.5985 542.977 79.7423 544.216 79.9939 545.51C80.2815 546.767 80.6948 548.025 81.234 549.283C81.7732 550.54 82.5461 551.672 83.5526 552.679C84.595 553.649 85.8891 554.439 87.4348 555.05C89.0164 555.661 90.9576 555.966 93.2581 555.966C95.5587 555.966 97.4818 555.661 99.0275 555.05C100.609 554.439 101.921 553.649 102.964 552.679C104.006 551.672 104.797 550.54 105.336 549.283C105.911 548.025 106.325 546.767 106.576 545.51C106.828 544.216 106.972 542.977 107.008 541.791C107.08 540.605 107.115 539.563 107.115 538.665C107.115 537.766 107.08 536.724 107.008 535.538C106.972 534.353 106.828 533.131 106.576 531.873C106.325 530.616 105.911 529.376 105.336 528.154C104.797 526.932 104.006 525.836 102.964 524.866C101.921 523.896 100.609 523.123 99.0275 522.549C97.4818 521.938 95.5587 521.632 93.2581 521.632Z" fill="#AD6E10"/>
<path d="M238.787 522.98C238.751 524.13 238.733 525.261 238.733 526.375C238.733 527.453 238.733 528.513 238.733 529.555V538.665C238.733 546.282 237.691 552.858 235.606 558.392C233.557 563.89 230.735 568.435 227.141 572.029C223.582 575.586 219.412 578.137 214.631 579.682C209.85 581.227 204.764 582 199.372 582C195.166 582 191.122 581.713 187.24 581.138C183.394 580.599 179.799 579.575 176.456 578.065C173.113 576.52 170.076 574.58 167.344 572.244C164.612 569.873 162.257 567.07 160.28 563.836C158.339 560.566 156.829 556.847 155.751 552.679C154.709 548.51 154.187 543.839 154.187 538.665V522.98L147.286 521.632V498.24H192.093V521.632L185.191 522.98V529.933C185.191 530.831 185.191 531.747 185.191 532.682C185.191 533.58 185.191 534.424 185.191 535.215C185.227 536.005 185.245 536.706 185.245 537.317C185.245 537.928 185.245 538.377 185.245 538.665C185.245 539.563 185.263 540.605 185.299 541.791C185.335 542.977 185.479 544.216 185.73 545.51C186.018 546.767 186.431 548.025 186.971 549.283C187.51 550.54 188.283 551.672 189.289 552.679C190.332 553.649 191.626 554.439 193.171 555.05C194.753 555.661 196.694 555.966 198.995 555.966C201.295 555.966 203.218 555.661 204.764 555.05C206.346 554.439 207.658 553.649 208.7 552.679C209.743 551.672 210.533 550.54 211.073 549.283C211.648 548.025 212.061 546.767 212.313 545.51C212.564 544.216 212.708 542.977 212.744 541.791C212.816 540.605 212.852 539.563 212.852 538.665C212.852 538.377 212.852 537.928 212.852 537.317C212.852 536.706 212.834 536.005 212.798 535.215C212.798 534.424 212.798 533.58 212.798 532.682C212.798 531.747 212.798 530.831 212.798 529.933V522.98L205.896 521.632V498.24H245.689V521.632L238.787 522.98Z" fill="#AD6E10"/>
<path d="M327 498.24V525.836H317.941C317.33 525.046 316.629 524.237 315.839 523.411C315.048 522.584 314.167 521.848 313.197 521.201C312.226 520.518 311.166 519.979 310.015 519.584C308.865 519.153 307.625 518.937 306.295 518.937V556.29L313.197 557.637V581.03H264.885V557.637L271.786 556.29V518.937C270.456 518.937 269.216 519.153 268.066 519.584C266.915 519.979 265.855 520.518 264.885 521.201C263.914 521.848 263.033 522.584 262.242 523.411C261.452 524.237 260.751 525.046 260.14 525.836H251.081V498.24H327Z" fill="#AD6E10"/>
<path d="M344.083 573.687L336.732 553.845L334 553.404V545.423H351.452V553.404L349.475 553.845L352.584 564.309L355.694 553.845L353.716 553.404V545.423H371.168V553.404L369.191 553.845L372.301 564.309L375.41 553.845L373.433 553.404V545.423H386.661V553.404L383.947 553.845L376.596 573.687H363.799L360.331 562.874L356.88 573.687H344.083Z" fill="#5C3A12"/>
<path d="M403.933 574C402.472 574 401.058 573.908 399.692 573.724C398.338 573.54 397.062 573.197 395.863 572.694C394.677 572.192 393.593 571.548 392.61 570.763C391.628 569.967 390.783 569.016 390.076 567.913C389.369 566.798 388.818 565.523 388.423 564.088C388.039 562.642 387.847 561.017 387.847 559.215C387.847 557.523 388.039 555.997 388.423 554.636C388.806 553.275 389.345 552.068 390.04 551.013C390.735 549.959 391.568 549.052 392.538 548.292C393.521 547.532 394.605 546.912 395.792 546.434C396.99 545.944 398.272 545.582 399.638 545.349C401.016 545.116 402.448 545 403.933 545C405.419 545 406.851 545.116 408.229 545.349C409.607 545.582 410.895 545.944 412.093 546.434C413.291 546.925 414.376 547.55 415.346 548.31C416.329 549.07 417.168 549.977 417.862 551.032C418.557 552.086 419.097 553.294 419.48 554.654C419.863 556.003 420.055 557.523 420.055 559.215C420.055 561.863 419.63 564.137 418.779 566.037C417.94 567.925 416.79 569.47 415.328 570.672C413.866 571.873 412.159 572.731 410.206 573.246C408.253 573.749 406.162 574 403.933 574ZM403.933 553.404C403.166 553.404 402.519 553.508 401.992 553.717C401.477 553.913 401.046 554.176 400.698 554.507C400.363 554.838 400.105 555.212 399.925 555.629C399.746 556.046 399.608 556.469 399.512 556.898C399.428 557.327 399.38 557.744 399.368 558.148C399.356 558.553 399.35 558.908 399.35 559.215C399.35 559.521 399.356 559.877 399.368 560.282C399.38 560.686 399.428 561.109 399.512 561.55C399.608 561.979 399.746 562.409 399.925 562.838C400.105 563.267 400.363 563.653 400.698 563.996C401.046 564.327 401.477 564.597 401.992 564.805C402.519 565.014 403.166 565.118 403.933 565.118C404.7 565.118 405.341 565.014 405.856 564.805C406.384 564.597 406.821 564.327 407.168 563.996C407.516 563.653 407.78 563.267 407.959 562.838C408.151 562.409 408.289 561.979 408.373 561.55C408.457 561.109 408.504 560.686 408.516 560.282C408.54 559.877 408.552 559.521 408.552 559.215C408.552 558.908 408.54 558.553 408.516 558.148C408.504 557.744 408.457 557.327 408.373 556.898C408.289 556.469 408.151 556.046 407.959 555.629C407.78 555.212 407.516 554.838 407.168 554.507C406.821 554.176 406.384 553.913 405.856 553.717C405.341 553.508 404.7 553.404 403.933 553.404Z" fill="#5C3A12"/>
<path d="M452.676 573.669H441.245C440.886 572.97 440.515 572.228 440.131 571.444C439.748 570.659 439.376 569.844 439.017 568.998C438.657 568.152 438.322 567.276 438.01 566.368C437.699 565.461 437.435 564.529 437.22 563.573H436.59V573.669H422.787V565.688L425.088 565.228V553.864L422.787 553.404V545.423H438.442C440.515 545.423 442.306 545.521 443.816 545.717C445.325 545.913 446.607 546.195 447.662 546.563C448.716 546.919 449.567 547.36 450.214 547.887C450.873 548.402 451.382 548.99 451.742 549.653C452.113 550.302 452.359 551.019 452.479 551.804C452.61 552.576 452.676 553.398 452.676 554.268C452.676 555.151 452.592 555.954 452.425 556.677C452.269 557.388 451.987 558.044 451.58 558.645C451.173 559.246 450.615 559.797 449.909 560.3C449.202 560.79 448.303 561.256 447.213 561.698C447.44 562.188 447.782 562.764 448.237 563.426C448.692 564.076 449.184 564.744 449.711 565.431C450.238 566.105 450.765 566.767 451.292 567.417C451.832 568.054 452.293 568.6 452.676 569.053V573.669ZM436.59 558.148C437.285 558.148 437.914 558.118 438.478 558.056C439.053 557.995 439.538 557.854 439.933 557.633C440.341 557.413 440.652 557.088 440.868 556.659C441.084 556.23 441.192 555.654 441.192 554.93C441.192 554.219 441.084 553.655 440.868 553.238C440.652 552.809 440.341 552.478 439.933 552.245C439.538 552.012 439.053 551.859 438.478 551.786C437.914 551.712 437.285 551.675 436.59 551.675V558.148Z" fill="#5C3A12"/>
<path d="M489 549.947C488.425 550.376 487.862 550.836 487.311 551.326C486.759 551.816 486.232 552.319 485.729 552.834C485.226 553.349 484.746 553.864 484.291 554.379C483.848 554.893 483.44 555.39 483.069 555.868C482.614 556.432 482.182 556.99 481.775 557.542C481.367 558.093 480.978 558.651 480.607 559.215C481.11 559.926 481.607 560.619 482.098 561.293C482.602 561.955 483.105 562.617 483.608 563.279C484.027 563.831 484.465 564.401 484.92 564.989C485.387 565.565 485.855 566.129 486.322 566.681C486.789 567.233 487.245 567.754 487.688 568.244C488.143 568.722 488.569 569.139 488.964 569.495L488.982 573.669H474.747L469.661 561.881V573.669H455.858V565.688L458.158 565.228V553.864L455.858 553.404V545.423H469.661V556.751L474.747 545.423H488.982L489 549.947Z" fill="#5C3A12"/>
<path d="M359.956 525.764C359.944 526.983 359.77 528.067 359.435 529.015C359.112 529.951 358.657 530.764 358.07 531.454C357.484 532.131 356.795 532.71 356.005 533.19C355.215 533.658 354.365 534.039 353.455 534.335C352.545 534.618 351.588 534.797 350.582 534.871C349.588 534.957 348.589 535 347.583 535C345.763 535 344.165 534.926 342.788 534.778C341.998 534.68 340.819 534.409 339.25 533.966C337.969 533.608 336.964 533.233 336.233 532.839V525.543H341.639C342.261 526.429 342.962 527.082 343.74 527.501C344.53 527.919 345.338 528.129 346.164 528.129C346.38 528.129 346.619 528.11 346.883 528.073C347.146 528.036 347.391 527.932 347.619 527.759C347.858 527.587 348.056 527.316 348.211 526.946C348.379 526.577 348.463 526.06 348.463 525.395C347.433 525.296 346.41 525.155 345.392 524.97C344.386 524.785 343.423 524.533 342.501 524.213C341.579 523.893 340.717 523.492 339.915 523.012C339.125 522.52 338.436 521.928 337.85 521.239C337.275 520.549 336.82 519.743 336.485 518.819C336.162 517.883 336 516.806 336 515.587C336 514.281 336.168 513.136 336.503 512.151C336.838 511.154 337.293 510.298 337.868 509.583C338.454 508.857 339.137 508.26 339.915 507.792C340.705 507.311 341.549 506.93 342.447 506.646C343.357 506.363 344.297 506.185 345.266 506.111C346.248 506.037 347.224 506 348.193 506C349.606 506 350.875 506.055 352.001 506.166C353.138 506.265 354.162 506.425 355.071 506.646C355.981 506.868 356.783 507.121 357.478 507.404C358.184 507.675 358.813 507.939 359.363 508.198V515.402H353.958C353.347 514.515 352.665 513.863 351.911 513.444C351.169 513.025 350.402 512.816 349.612 512.816C349.397 512.816 349.151 512.847 348.876 512.908C348.601 512.958 348.343 513.087 348.104 513.296C347.864 513.493 347.661 513.789 347.493 514.183C347.326 514.565 347.242 515.088 347.242 515.753C349.337 515.827 351.18 516.061 352.773 516.455C354.365 516.849 355.688 517.446 356.741 518.246C357.807 519.035 358.609 520.051 359.148 521.294C359.687 522.526 359.956 524.016 359.956 525.764Z" fill="#5C3A12"/>
<path d="M376.962 520.832V534.668H363.188V526.651L365.487 526.189V514.774L363.188 514.312V506.296H376.962L382.745 517.194L388.473 506.296H402.265V514.312L399.966 514.774V526.189L402.265 526.651V534.668H388.473V520.832L382.745 531.029L376.962 520.832Z" fill="#5C3A12"/>
<path d="M424.766 534.668L423.797 529.902H416.29L415.338 534.668H405.12V525.358L407.329 524.896L412.627 506.296H427.46L432.776 524.896L434.984 525.358V534.668H424.766ZM417.835 523.566H422.252L420.043 512.871L417.835 523.566Z" fill="#5C3A12"/>
<path d="M467.722 534.668H456.301C455.941 533.966 455.57 533.221 455.187 532.432C454.804 531.644 454.433 530.825 454.074 529.976C453.715 529.126 453.379 528.246 453.068 527.334C452.757 526.423 452.493 525.487 452.278 524.527H451.649V534.668H437.858V526.651L440.156 526.189V514.774L437.858 514.312V506.296H453.499C455.57 506.296 457.36 506.394 458.869 506.591C460.377 506.788 461.658 507.071 462.712 507.441C463.765 507.798 464.615 508.241 465.262 508.771C465.92 509.288 466.429 509.879 466.788 510.544C467.159 511.197 467.405 511.917 467.524 512.705C467.656 513.481 467.722 514.306 467.722 515.18C467.722 516.067 467.638 516.873 467.47 517.6C467.315 518.314 467.033 518.973 466.626 519.576C466.219 520.18 465.663 520.734 464.956 521.239C464.25 521.731 463.352 522.199 462.263 522.643C462.49 523.135 462.831 523.714 463.286 524.379C463.741 525.032 464.232 525.703 464.759 526.392C465.286 527.07 465.812 527.735 466.339 528.387C466.878 529.028 467.339 529.576 467.722 530.031V534.668ZM451.649 519.078C452.344 519.078 452.972 519.047 453.535 518.985C454.11 518.924 454.595 518.782 454.99 518.561C455.397 518.339 455.708 518.013 455.923 517.582C456.139 517.151 456.247 516.572 456.247 515.845C456.247 515.131 456.139 514.565 455.923 514.146C455.708 513.715 455.397 513.382 454.99 513.148C454.595 512.914 454.11 512.761 453.535 512.687C452.972 512.613 452.344 512.576 451.649 512.576V519.078Z" fill="#5C3A12"/>
<path d="M495 506.296V515.753H491.983C491.78 515.482 491.546 515.205 491.283 514.922C491.019 514.638 490.726 514.386 490.403 514.164C490.08 513.93 489.726 513.746 489.343 513.61C488.96 513.462 488.547 513.389 488.104 513.389V526.189L490.403 526.651V534.668H474.312V526.651L476.611 526.189V513.389C476.168 513.389 475.755 513.462 475.372 513.61C474.989 513.746 474.636 513.93 474.312 514.164C473.989 514.386 473.696 514.638 473.432 514.922C473.169 515.205 472.936 515.482 472.732 515.753H469.715V506.296H495Z" fill="#5C3A12"/>
<defs>
<radialGradient id="paint0_radial_7:4" cx="0" cy="0" r="1" gradientUnits="userSpaceOnUse" gradientTransform="translate(270 540) rotate(90) scale(540 270)">
<stop stop-color="#F7F6EE"/>
<stop offset="1" stop-color="#FCF5BA"/>
</radialGradient>
</defs>
</svg>
