<svg width="540" height="1080" viewBox="0 0 540 1080" fill="none" xmlns="http://www.w3.org/2000/svg">
<rect width="540" height="1080" fill="#180B0B"/>
<path d="M127.977 331.592H142.377C147.049 331.592 150.569 332.392 152.937 333.992C155.369 335.592 156.585 338.376 156.585 342.344V395.528C156.585 397.768 156.233 399.24 155.529 399.944C154.889 400.648 153.481 401 151.305 401H141.225V343.496C141.225 342.472 141.065 341.768 140.745 341.384C140.489 340.936 139.785 340.712 138.633 340.712H127.977V331.592ZM93.1291 401H83.0491C80.8731 401 79.4331 400.648 78.7291 399.944C78.0891 399.24 77.7691 397.768 77.7691 395.528V335.432C77.7691 334.28 78.0891 333.352 78.7291 332.648C79.3691 331.944 80.2011 331.592 81.2251 331.592H93.1291V401ZM97.0651 331.592H121.641C122.665 331.592 123.497 331.944 124.137 332.648C124.777 333.352 125.097 334.28 125.097 335.432V393.992H115.113C113.193 393.992 111.817 393.48 110.985 392.456C110.153 391.368 109.737 389.64 109.737 387.272V343.496C109.737 342.472 109.577 341.768 109.257 341.384C109.001 340.936 108.297 340.712 107.145 340.712H97.0651V331.592ZM195.937 340.712H187.009C185.985 340.712 185.473 340.968 185.473 341.48V401H175.393C173.217 401 171.777 400.648 171.073 399.944C170.433 399.24 170.113 397.768 170.113 395.528V337.064C170.113 334.824 170.433 333.352 171.073 332.648C171.777 331.944 173.217 331.592 175.393 331.592H195.937V340.712ZM199.777 331.592H209.857C212.033 331.592 213.441 331.944 214.081 332.648C214.785 333.352 215.137 334.824 215.137 337.064V395.432C215.137 397.672 214.785 399.176 214.081 399.944C213.377 400.648 211.969 401 209.857 401H199.777V368.84H189.313V359.72H199.777V331.592ZM274.4 366.152L274.496 382.376C274.496 389.992 273.536 395.016 271.616 397.448C269.696 399.816 266.208 401 261.152 401H247.04V391.88H254.144C255.744 391.88 256.8 391.688 257.312 391.304C257.824 390.92 258.08 390.184 258.08 389.096V343.592C258.08 342.44 257.824 341.672 257.312 341.288C256.8 340.904 255.744 340.712 254.144 340.712H247.04V331.592H262.112C266.784 331.592 270.016 332.68 271.808 334.856C273.664 336.968 274.592 341.128 274.592 347.336L274.4 366.152ZM244.16 401.096H234.08C231.968 401.096 230.56 400.744 229.856 400.04C229.152 399.272 228.8 397.8 228.8 395.624V337.064C228.8 334.888 229.152 333.448 229.856 332.744C230.56 331.976 231.968 331.592 234.08 331.592H244.16V401.096ZM303.223 401H293.143C290.967 401 289.527 400.648 288.823 399.944C288.183 399.24 287.863 397.768 287.863 395.528V337.064C287.863 334.824 288.183 333.352 288.823 332.648C289.527 331.944 290.967 331.592 293.143 331.592H303.223V401ZM332.887 387.56V395.72C332.887 397.896 332.535 399.336 331.831 400.04C331.127 400.68 329.655 401 327.415 401H307.063V387.56H332.887ZM327.127 359.24V365C327.127 367.304 326.903 368.776 326.455 369.416C326.007 369.992 324.727 370.28 322.615 370.28H307.063V359.24H327.127ZM331.927 331.592V339.752C331.927 341.928 331.575 343.368 330.871 344.072C330.167 344.712 328.695 345.032 326.455 345.032H307.063V331.592H331.927ZM379.75 331.592V389.096C379.75 390.056 379.974 390.76 380.422 391.208C380.934 391.656 382.022 391.88 383.686 391.88H390.79V401H378.598C376.038 401 373.894 400.808 372.166 400.424C370.502 400.04 369.03 399.272 367.75 398.12C366.534 396.904 365.574 395.56 364.87 394.088C364.23 392.616 363.718 390.408 363.334 387.464C362.758 383.048 362.47 377.128 362.47 369.704C362.47 362.216 362.502 356.936 362.566 353.864C362.694 350.792 362.95 347.816 363.334 344.936C363.718 341.992 364.23 339.816 364.87 338.408C365.574 336.936 366.534 335.624 367.75 334.472C369.03 333.256 370.502 332.488 372.166 332.168C373.894 331.784 376.038 331.592 378.598 331.592H379.75ZM383.59 331.688H395.782C398.342 331.688 400.454 331.88 402.118 332.264C403.846 332.648 405.318 333.448 406.534 334.664C407.814 335.816 408.774 337.128 409.414 338.6C410.118 340.072 410.662 342.28 411.046 345.224C411.622 349.64 411.91 355.592 411.91 363.08C411.91 370.504 411.846 375.752 411.718 378.824C411.654 381.896 411.43 384.904 411.046 387.848C410.662 390.728 410.118 392.904 409.414 394.376C408.774 395.784 407.814 397.096 406.534 398.312C405.318 399.464 403.846 400.232 402.118 400.616C400.454 400.936 398.342 401.096 395.782 401.096H394.63V343.592C394.63 342.632 394.374 341.928 393.862 341.48C393.414 341.032 392.358 340.808 390.694 340.808H383.59V331.688ZM440.098 401H430.018C427.842 401 426.402 400.648 425.698 399.944C425.058 399.24 424.738 397.8 424.738 395.624V337.16C424.738 334.92 425.09 333.448 425.794 332.744C426.498 331.976 427.906 331.592 430.018 331.592H440.098V401ZM464.002 358.376V364.136C464.002 366.44 463.778 367.912 463.33 368.552C462.882 369.128 461.602 369.416 459.49 369.416H443.938V358.376H464.002ZM467.842 331.592V339.848C467.842 342.024 467.49 343.464 466.786 344.168C466.082 344.808 464.61 345.128 462.37 345.128H443.938V331.592H467.842ZM61.4416 635H51.3616C49.1856 635 47.7456 634.648 47.0416 633.944C46.4016 633.24 46.0816 631.8 46.0816 629.624V571.16C46.0816 568.92 46.4336 567.448 47.1376 566.744C47.8416 565.976 49.2496 565.592 51.3616 565.592H61.4416V635ZM85.3456 592.376V598.136C85.3456 600.44 85.1216 601.912 84.6736 602.552C84.2256 603.128 82.9456 603.416 80.8336 603.416H65.2816V592.376H85.3456ZM89.1856 565.592V573.848C89.1856 576.024 88.8336 577.464 88.1296 578.168C87.4256 578.808 85.9536 579.128 83.7136 579.128H65.2816V565.592H89.1856ZM114.719 565.592V623.096C114.719 624.056 114.943 624.76 115.391 625.208C115.903 625.656 116.991 625.88 118.655 625.88H125.759V635H113.567C111.007 635 108.863 634.808 107.135 634.424C105.471 634.04 103.999 633.272 102.719 632.12C101.503 630.904 100.543 629.56 99.8386 628.088C99.1986 626.616 98.6866 624.408 98.3026 621.464C97.7266 617.048 97.4386 611.128 97.4386 603.704C97.4386 596.216 97.4706 590.936 97.5346 587.864C97.6626 584.792 97.9186 581.816 98.3026 578.936C98.6866 575.992 99.1986 573.816 99.8386 572.408C100.543 570.936 101.503 569.624 102.719 568.472C103.999 567.256 105.471 566.488 107.135 566.168C108.863 565.784 111.007 565.592 113.567 565.592H114.719ZM118.559 565.688H130.751C133.311 565.688 135.423 565.88 137.087 566.264C138.815 566.648 140.287 567.448 141.503 568.664C142.783 569.816 143.743 571.128 144.383 572.6C145.087 574.072 145.631 576.28 146.015 579.224C146.591 583.64 146.879 589.592 146.879 597.08C146.879 604.504 146.815 609.752 146.687 612.824C146.623 615.896 146.399 618.904 146.015 621.848C145.631 624.728 145.087 626.904 144.383 628.376C143.743 629.784 142.783 631.096 141.503 632.312C140.287 633.464 138.815 634.232 137.087 634.616C135.423 634.936 133.311 635.096 130.751 635.096H129.599V577.592C129.599 576.632 129.343 575.928 128.831 575.48C128.383 575.032 127.327 574.808 125.663 574.808H118.559V565.688ZM175.067 635H164.987C162.811 635 161.371 634.648 160.667 633.944C160.027 633.24 159.707 631.768 159.707 629.528V569.432C159.707 568.28 160.027 567.352 160.667 566.648C161.307 565.944 162.139 565.592 163.163 565.592H175.067V635ZM178.907 565.592H191.099C194.811 565.592 197.723 565.88 199.835 566.456C202.011 567.032 203.643 568.184 204.731 569.912C205.819 571.576 206.491 573.464 206.747 575.576C207.067 577.624 207.227 580.536 207.227 584.312C207.227 588.088 207.067 590.968 206.747 592.952C206.491 594.936 205.819 596.792 204.731 598.52C203.707 600.248 202.075 601.464 199.835 602.168C197.659 602.872 194.747 603.224 191.099 603.224H178.907V594.104H186.011C187.675 594.104 188.731 593.88 189.179 593.432C189.691 592.984 189.947 592.28 189.947 591.32V577.592C189.947 576.568 189.691 575.832 189.179 575.384C188.731 574.936 187.675 574.712 186.011 574.712H178.907V565.592ZM188.123 606.2H200.027C201.947 606.2 203.323 606.744 204.155 607.832C204.987 608.856 205.403 610.552 205.403 612.92V635H191.579C190.555 635 189.723 634.648 189.083 633.944C188.443 633.24 188.123 632.312 188.123 631.16V606.2ZM235.656 565.592V623.096C235.656 624.056 235.88 624.76 236.328 625.208C236.84 625.656 237.928 625.88 239.592 625.88H246.696V635H234.504C231.944 635 229.8 634.808 228.072 634.424C226.408 634.04 224.936 633.272 223.656 632.12C222.44 630.904 221.48 629.56 220.776 628.088C220.136 626.616 219.624 624.408 219.24 621.464C218.664 617.048 218.376 611.128 218.376 603.704C218.376 596.216 218.408 590.936 218.472 587.864C218.6 584.792 218.856 581.816 219.24 578.936C219.624 575.992 220.136 573.816 220.776 572.408C221.48 570.936 222.44 569.624 223.656 568.472C224.936 567.256 226.408 566.488 228.072 566.168C229.8 565.784 231.944 565.592 234.504 565.592H235.656ZM239.496 597.176H256.392C262.664 597.176 265.8 600.056 265.8 605.816V625.784C265.8 629.752 265.48 632.28 264.84 633.368C264.264 634.456 262.536 635 259.656 635H250.536V609.08C250.536 608.056 250.376 607.352 250.056 606.968C249.8 606.52 249.096 606.296 247.944 606.296H239.496V597.176ZM239.496 565.592H251.688C256.36 565.592 259.88 566.392 262.248 567.992C264.68 569.592 265.896 572.376 265.896 576.344V584.984C265.896 586.328 265.448 587 264.552 587H252.456C251.56 587 251.016 586.872 250.824 586.616C250.632 586.36 250.536 585.816 250.536 584.984V577.496C250.536 576.472 250.376 575.768 250.056 575.384C249.8 574.936 249.096 574.712 247.944 574.712H239.496V565.592ZM293.942 635H283.862C281.686 635 280.246 634.648 279.542 633.944C278.902 633.24 278.582 631.768 278.582 629.528V571.064C278.582 568.824 278.902 567.352 279.542 566.648C280.246 565.944 281.686 565.592 283.862 565.592H293.942V635ZM323.606 621.56V629.72C323.606 631.896 323.254 633.336 322.55 634.04C321.846 634.68 320.374 635 318.134 635H297.782V621.56H323.606ZM317.846 593.24V599C317.846 601.304 317.622 602.776 317.174 603.416C316.726 603.992 315.446 604.28 313.334 604.28H297.782V593.24H317.846ZM322.646 565.592V573.752C322.646 575.928 322.294 577.368 321.59 578.072C320.886 578.712 319.414 579.032 317.174 579.032H297.782V565.592H322.646ZM379.775 600.152L379.871 616.376C379.871 623.992 378.911 629.016 376.991 631.448C375.071 633.816 371.583 635 366.527 635H352.415V625.88H359.519C361.119 625.88 362.175 625.688 362.687 625.304C363.199 624.92 363.455 624.184 363.455 623.096V577.592C363.455 576.44 363.199 575.672 362.687 575.288C362.175 574.904 361.119 574.712 359.519 574.712H352.415V565.592H367.487C372.159 565.592 375.391 566.68 377.183 568.856C379.039 570.968 379.967 575.128 379.967 581.336L379.775 600.152ZM349.535 635.096H339.455C337.343 635.096 335.935 634.744 335.231 634.04C334.527 633.272 334.175 631.8 334.175 629.624V571.064C334.175 568.888 334.527 567.448 335.231 566.744C335.935 565.976 337.343 565.592 339.455 565.592H349.535V635.096ZM428.379 635H418.299C416.123 635 414.683 634.648 413.979 633.944C413.339 633.24 413.019 631.768 413.019 629.528V571.064C413.019 568.824 413.339 567.352 413.979 566.648C414.683 565.944 416.123 565.592 418.299 565.592H428.379V635ZM494.786 565.592V629.528C494.786 631.768 494.434 633.24 493.73 633.944C493.09 634.648 491.682 635 489.506 635H475.874C472.098 635 469.602 634.424 468.386 633.272C467.234 632.12 466.21 629.144 465.314 624.344C463.522 614.872 460.93 599.576 457.538 578.456C457.282 576.856 456.898 575.832 456.386 575.384C455.938 574.936 455.138 574.68 453.986 574.616H442.178V565.592H463.01C464.61 565.592 465.89 565.784 466.85 566.168C467.81 566.552 468.578 567.384 469.154 568.664C469.794 569.88 470.21 571.064 470.402 572.216C470.658 573.368 470.914 574.712 471.17 576.248C471.49 578.104 471.938 580.824 472.514 584.408C473.602 591.64 475.298 601.848 477.602 615.032C478.498 620.664 479.106 623.832 479.426 624.536C479.81 625.176 480.45 625.56 481.346 625.688V569.432C481.346 568.28 481.666 567.352 482.306 566.648C482.946 565.944 483.778 565.592 484.802 565.592H494.786ZM442.178 577.976H452.162C453.186 577.976 454.018 578.328 454.658 579.032C455.298 579.736 455.618 580.664 455.618 581.816V629.528C455.618 631.704 455.33 633.176 454.754 633.944C454.178 634.648 453.026 635 451.298 635H442.178V577.976Z" fill="#E7CCCC"/>
<path d="M178.252 448.592V506.096C178.252 507.12 178.38 507.856 178.636 508.304C178.956 508.688 179.692 508.88 180.844 508.88H191.212V518H177.1C172.428 518 168.876 517.2 166.444 515.6C164.076 514 162.892 511.216 162.892 507.248V454.064C162.892 451.824 163.212 450.352 163.852 449.648C164.556 448.944 165.996 448.592 168.172 448.592H178.252ZM194.092 470H204.076C205.996 470 207.372 470.544 208.204 471.632C209.036 472.656 209.452 474.352 209.452 476.72V506.096C209.452 507.12 209.58 507.856 209.836 508.304C210.156 508.688 210.892 508.88 212.044 508.88H222.412V518H197.548C196.524 518 195.692 517.648 195.052 516.944C194.412 516.24 194.092 515.312 194.092 514.16V470ZM226.252 448.592H236.332C238.508 448.592 239.948 448.944 240.652 449.648C241.356 450.352 241.708 451.824 241.708 454.064V514.16C241.708 515.312 241.356 516.24 240.652 516.944C240.012 517.648 239.18 518 238.156 518H226.252V448.592ZM270.692 518H260.612C258.436 518 256.996 517.648 256.292 516.944C255.652 516.24 255.332 514.768 255.332 512.528V454.064C255.332 451.824 255.652 450.352 256.292 449.648C256.996 448.944 258.436 448.592 260.612 448.592H270.692V518ZM314.538 497.072H327.978C328.682 497.072 329.034 497.52 329.034 498.416V515.312C329.034 517.104 328.138 518 326.346 518H303.114V508.88H312.042C313.066 508.88 313.578 508.784 313.578 508.592C313.642 508.336 313.674 508.048 313.674 507.728V498.128C313.674 497.616 313.738 497.328 313.866 497.264C313.994 497.136 314.218 497.072 314.538 497.072ZM299.754 518H289.674C287.498 518 286.058 517.648 285.354 516.944C284.714 516.24 284.394 514.768 284.394 512.528V454.064C284.394 451.824 284.714 450.352 285.354 449.648C286.058 448.944 287.498 448.592 289.674 448.592H299.754V518ZM368.163 497.072H381.603C382.307 497.072 382.659 497.52 382.659 498.416V515.312C382.659 517.104 381.763 518 379.971 518H356.739V508.88H365.667C366.691 508.88 367.203 508.784 367.203 508.592C367.267 508.336 367.299 508.048 367.299 507.728V498.128C367.299 497.616 367.363 497.328 367.491 497.264C367.619 497.136 367.843 497.072 368.163 497.072ZM353.379 518H343.299C341.123 518 339.683 517.648 338.979 516.944C338.339 516.24 338.019 514.768 338.019 512.528V454.064C338.019 451.824 338.339 450.352 338.979 449.648C339.683 448.944 341.123 448.592 343.299 448.592H353.379V518Z" fill="#D39999"/>
<path d="M176.098 752H166.018C163.842 752 162.402 751.648 161.698 750.944C161.058 750.24 160.738 748.768 160.738 746.528V686.432C160.738 685.28 161.058 684.352 161.698 683.648C162.338 682.944 163.17 682.592 164.194 682.592H176.098V752ZM179.938 682.592H192.13C195.842 682.592 198.754 682.88 200.866 683.456C203.042 684.032 204.674 685.184 205.762 686.912C206.85 688.576 207.522 690.464 207.778 692.576C208.098 694.624 208.258 697.536 208.258 701.312C208.258 705.088 208.098 707.968 207.778 709.952C207.522 711.936 206.85 713.792 205.762 715.52C204.738 717.248 203.106 718.464 200.866 719.168C198.69 719.872 195.778 720.224 192.13 720.224H179.938V711.104H187.042C188.706 711.104 189.762 710.88 190.21 710.432C190.722 709.984 190.978 709.28 190.978 708.32V694.592C190.978 693.568 190.722 692.832 190.21 692.384C189.762 691.936 188.706 691.712 187.042 691.712H179.938V682.592ZM189.154 723.2H201.058C202.978 723.2 204.354 723.744 205.186 724.832C206.018 725.856 206.434 727.552 206.434 729.92V752H192.61C191.586 752 190.754 751.648 190.114 750.944C189.474 750.24 189.154 749.312 189.154 748.16V723.2ZM245.999 691.712H237.071C236.047 691.712 235.535 691.968 235.535 692.48V752H225.455C223.279 752 221.839 751.648 221.135 750.944C220.495 750.24 220.175 748.768 220.175 746.528V688.064C220.175 685.824 220.495 684.352 221.135 683.648C221.839 682.944 223.279 682.592 225.455 682.592H245.999V691.712ZM249.839 682.592H259.919C262.095 682.592 263.503 682.944 264.143 683.648C264.847 684.352 265.199 685.824 265.199 688.064V746.432C265.199 748.672 264.847 750.176 264.143 750.944C263.439 751.648 262.031 752 259.919 752H249.839V719.84H239.375V710.72H249.839V682.592ZM295.375 682.592V740.096C295.375 741.056 295.599 741.76 296.047 742.208C296.559 742.656 297.647 742.88 299.311 742.88H306.415V752H294.223C291.663 752 289.519 751.808 287.791 751.424C286.127 751.04 284.655 750.272 283.375 749.12C282.159 747.904 281.199 746.56 280.495 745.088C279.855 743.616 279.343 741.408 278.959 738.464C278.383 734.048 278.095 728.128 278.095 720.704C278.095 713.216 278.127 707.936 278.191 704.864C278.319 701.792 278.575 698.816 278.959 695.936C279.343 692.992 279.855 690.816 280.495 689.408C281.199 687.936 282.159 686.624 283.375 685.472C284.655 684.256 286.127 683.488 287.791 683.168C289.519 682.784 291.663 682.592 294.223 682.592H295.375ZM299.215 714.176H316.111C322.383 714.176 325.519 717.056 325.519 722.816V742.784C325.519 746.752 325.199 749.28 324.559 750.368C323.983 751.456 322.255 752 319.375 752H310.255V726.08C310.255 725.056 310.095 724.352 309.775 723.968C309.519 723.52 308.815 723.296 307.663 723.296H299.215V714.176ZM299.215 682.592H311.407C316.079 682.592 319.599 683.392 321.967 684.992C324.399 686.592 325.615 689.376 325.615 693.344V701.984C325.615 703.328 325.167 704 324.271 704H312.175C311.279 704 310.735 703.872 310.543 703.616C310.351 703.36 310.255 702.816 310.255 701.984V694.496C310.255 693.472 310.095 692.768 309.775 692.384C309.519 691.936 308.815 691.712 307.663 691.712H299.215V682.592ZM353.66 752H343.58C341.404 752 339.964 751.648 339.26 750.944C338.62 750.24 338.3 748.768 338.3 746.528V688.064C338.3 685.824 338.62 684.352 339.26 683.648C339.964 682.944 341.404 682.592 343.58 682.592H353.66V752ZM383.324 738.56V746.72C383.324 748.896 382.972 750.336 382.268 751.04C381.564 751.68 380.092 752 377.852 752H357.5V738.56H383.324ZM377.564 710.24V716C377.564 718.304 377.34 719.776 376.892 720.416C376.444 720.992 375.164 721.28 373.052 721.28H357.5V710.24H377.564ZM382.364 682.592V690.752C382.364 692.928 382.012 694.368 381.308 695.072C380.604 695.712 379.132 696.032 376.892 696.032H357.5V682.592H382.364Z" fill="#A60B0B"/>
</svg>
